<?xml version="1.0" encoding="utf-8"?>
<!-- Generator: Adobe Illustrator 23.0.2, SVG Export Plug-In . SVG Version: 6.00 Build 0)  -->
<svg version="1.1" id="圖層_1" xmlns="http://www.w3.org/2000/svg" xmlns:xlink="http://www.w3.org/1999/xlink" x="0px" y="0px"
	 viewBox="0 0 100 100" style="enable-background:new 0 0 100 100;" xml:space="preserve">
<style type="text/css">
	.st0{fill:#03CAFF;}
	.st1{fill:#C8FF00;}
</style>
<g>
	<g>
		<path class="st0" d="M188.56,80.9c-0.03-0.04-0.08-0.07-0.13-0.07h-29.22c-0.08,0-0.15,0.07-0.15,0.16c0,0.09,0.07,0.15,0.15,0.15
			h29.14l9.31,14.37H198c0-0.03-0.01-0.06-0.03-0.08L188.56,80.9z"/>
		<path class="st0" d="M187.57,82.35c-0.03-0.04-0.08-0.07-0.13-0.07h-29.07c-0.08,0-0.15,0.07-0.15,0.15
			c0,0.09,0.07,0.16,0.15,0.16h28.99l8.37,12.91h0.34c0-0.03-0.01-0.06-0.02-0.08L187.57,82.35z"/>
		<path class="st0" d="M186.68,83.65c-0.03-0.04-0.08-0.07-0.13-0.07h-28.91c-0.09,0-0.15,0.07-0.15,0.15
			c0,0.09,0.07,0.15,0.15,0.15h28.83l7.52,11.61h0.34c0-0.03-0.01-0.06-0.03-0.08L186.68,83.65z"/>
		<path class="st0" d="M185.88,84.83c-0.03-0.04-0.08-0.07-0.13-0.07h-28.83c-0.09,0-0.16,0.07-0.16,0.15
			c0,0.09,0.07,0.15,0.16,0.15h28.75l6.76,10.43h0.34c0-0.03-0.01-0.06-0.03-0.08L185.88,84.83z"/>
		<path class="st0" d="M185.16,85.89c-0.03-0.04-0.08-0.07-0.13-0.07h-28.68c-0.09,0-0.16,0.07-0.16,0.15
			c0,0.09,0.07,0.15,0.16,0.15h28.6l6.08,9.37h0.34c0-0.03-0.01-0.06-0.03-0.08L185.16,85.89z"/>
		<path class="st0" d="M188.56,110.1l9.41-14.52c0.02-0.03,0.03-0.05,0.03-0.08h-0.34l-9.31,14.37h-29.14
			c-0.08,0-0.15,0.07-0.15,0.15c0,0.09,0.07,0.16,0.15,0.16h29.22C188.49,110.17,188.53,110.15,188.56,110.1z"/>
		<path class="st0" d="M196.04,95.58c0.02-0.03,0.02-0.05,0.02-0.08h-0.34l-8.37,12.91h-28.99c-0.08,0-0.15,0.07-0.15,0.15
			c0,0.09,0.07,0.15,0.15,0.15h29.07c0.05,0,0.1-0.03,0.13-0.07L196.04,95.58z"/>
		<path class="st0" d="M194.3,95.58c0.02-0.03,0.03-0.05,0.03-0.08h-0.34l-7.52,11.61h-28.83c-0.09,0-0.15,0.07-0.15,0.15
			c0,0.09,0.07,0.16,0.15,0.16h28.91c0.05,0,0.1-0.03,0.13-0.07L194.3,95.58z"/>
		<path class="st0" d="M192.74,95.58c0.02-0.03,0.03-0.05,0.03-0.08h-0.34l-6.76,10.43h-28.75c-0.09,0-0.16,0.07-0.16,0.15
			c0,0.08,0.07,0.15,0.16,0.15h28.83c0.05,0,0.1-0.03,0.13-0.07L192.74,95.58z"/>
		<path class="st0" d="M191.33,95.58c0.02-0.03,0.03-0.05,0.03-0.08h-0.34l-6.08,9.37h-28.6c-0.09,0-0.16,0.07-0.16,0.15
			c0,0.09,0.07,0.16,0.16,0.16h28.68c0.05,0,0.1-0.03,0.13-0.07L191.33,95.58z"/>
	</g>
	<g>
		<path class="st0" d="M144.65,135.47c0.05,0,0.1-0.03,0.13-0.08l14.61-25.3c0.04-0.07,0.02-0.17-0.06-0.21
			c-0.07-0.04-0.17-0.02-0.21,0.06l-14.57,25.23l-17.1,0.88l-0.17,0.29c0.02,0.02,0.05,0.02,0.08,0.02L144.65,135.47z"/>
		<path class="st0" d="M143.89,133.89c0.05,0,0.1-0.03,0.13-0.08l14.53-25.18c0.04-0.07,0.02-0.17-0.06-0.21
			c-0.07-0.04-0.17-0.02-0.21,0.06l-14.49,25.1l-15.37,0.79l-0.17,0.29c0.03,0.02,0.05,0.02,0.08,0.02L143.89,133.89z"/>
		<path class="st0" d="M143.2,132.46c0.05,0,0.1-0.03,0.13-0.08l14.46-25.04c0.04-0.07,0.02-0.17-0.06-0.21
			c-0.07-0.04-0.17-0.02-0.21,0.06l-14.41,24.97l-13.81,0.71l-0.17,0.29c0.03,0.02,0.05,0.02,0.08,0.02L143.2,132.46z"/>
		<path class="st0" d="M142.58,131.18c0.05,0,0.1-0.03,0.13-0.08l14.41-24.97c0.04-0.08,0.02-0.17-0.06-0.21
			c-0.07-0.04-0.17-0.02-0.21,0.06l-14.37,24.89l-12.41,0.64l-0.17,0.29c0.02,0.01,0.05,0.02,0.08,0.02L142.58,131.18z"/>
		<path class="st0" d="M142.03,130.02c0.05,0,0.1-0.03,0.13-0.08l14.34-24.84c0.04-0.07,0.02-0.17-0.06-0.21
			c-0.07-0.04-0.17-0.02-0.21,0.06l-14.3,24.77l-11.15,0.58l-0.17,0.29c0.03,0.01,0.05,0.02,0.08,0.02L142.03,130.02z"/>
		<path class="st0" d="M119.35,120.87l7.87,15.41c0.01,0.03,0.03,0.05,0.06,0.06l0.17-0.29l-7.79-15.25l14.57-25.23
			c0.04-0.07,0.02-0.17-0.06-0.21c-0.07-0.04-0.17-0.02-0.21,0.06l-14.61,25.3C119.33,120.76,119.33,120.82,119.35,120.87z"/>
		<path class="st0" d="M128.19,134.6c0.01,0.03,0.04,0.05,0.06,0.06l0.17-0.29l-7-13.71l14.49-25.1c0.04-0.07,0.02-0.17-0.06-0.21
			c-0.07-0.04-0.17-0.02-0.21,0.06l-14.54,25.18c-0.03,0.05-0.03,0.1,0,0.15L128.19,134.6z"/>
		<path class="st0" d="M129.06,133.1c0.01,0.03,0.04,0.05,0.06,0.06l0.17-0.29L123,120.55l14.42-24.97
			c0.04-0.07,0.02-0.17-0.06-0.21c-0.07-0.04-0.17-0.02-0.21,0.06l-14.46,25.04c-0.03,0.05-0.03,0.1,0,0.15L129.06,133.1z"/>
		<path class="st0" d="M129.84,131.74c0.01,0.03,0.03,0.05,0.06,0.06l0.17-0.29l-5.65-11.07l14.37-24.9
			c0.04-0.07,0.02-0.17-0.06-0.21c-0.07-0.04-0.17-0.02-0.21,0.06l-14.42,24.97c-0.03,0.05-0.03,0.1,0,0.15L129.84,131.74z"/>
		<path class="st0" d="M130.55,130.52c0.01,0.03,0.03,0.05,0.06,0.06l0.17-0.29l-5.08-9.95L140,95.58c0.04-0.07,0.02-0.17-0.06-0.21
			c-0.07-0.04-0.17-0.02-0.21,0.06l-14.34,24.84c-0.03,0.04-0.03,0.1,0,0.15L130.55,130.52z"/>
	</g>
	<g>
		<path class="st0" d="M119.35,70.14c-0.02,0.05-0.02,0.1,0,0.15l14.61,25.31c0.04,0.07,0.14,0.1,0.21,0.06
			c0.07-0.04,0.1-0.14,0.06-0.21l-14.57-25.23l7.79-15.25l-0.17-0.29c-0.03,0.01-0.05,0.04-0.06,0.06L119.35,70.14z"/>
		<path class="st0" d="M121.11,70.28c-0.02,0.05-0.02,0.1,0,0.15l14.54,25.18c0.04,0.08,0.14,0.1,0.21,0.06
			c0.07-0.04,0.1-0.14,0.06-0.21l-14.49-25.1l7-13.71l-0.17-0.29c-0.03,0.02-0.05,0.04-0.06,0.06L121.11,70.28z"/>
		<path class="st0" d="M122.68,70.39c-0.02,0.05-0.02,0.1,0,0.15l14.46,25.04c0.04,0.07,0.14,0.1,0.21,0.06
			c0.07-0.04,0.1-0.14,0.06-0.21L123,70.46l6.29-12.32l-0.17-0.29c-0.02,0.01-0.05,0.04-0.06,0.06L122.68,70.39z"/>
		<path class="st0" d="M124.1,70.5c-0.02,0.05-0.02,0.1,0,0.15l14.42,24.97c0.04,0.07,0.14,0.1,0.21,0.06
			c0.07-0.04,0.1-0.14,0.06-0.21l-14.37-24.9l5.65-11.07l-0.17-0.29c-0.02,0.01-0.05,0.04-0.06,0.06L124.1,70.5z"/>
		<path class="st0" d="M125.38,70.6c-0.02,0.05-0.02,0.1,0,0.15l14.34,24.84c0.04,0.07,0.14,0.1,0.21,0.06
			c0.07-0.04,0.1-0.14,0.06-0.21l-14.3-24.77l5.08-9.95l-0.17-0.29c-0.03,0.02-0.05,0.04-0.06,0.06L125.38,70.6z"/>
		<path class="st0" d="M144.65,55.54l-17.28-0.89c-0.03,0-0.06,0.01-0.08,0.02l0.17,0.29l17.1,0.88l14.57,25.23
			c0.04,0.07,0.14,0.1,0.21,0.06c0.07-0.04,0.1-0.14,0.06-0.21l-14.61-25.3C144.75,55.57,144.7,55.54,144.65,55.54z"/>
		<path class="st0" d="M128.34,56.32c-0.03,0-0.06,0.01-0.09,0.02l0.17,0.29l15.37,0.79l14.49,25.1c0.04,0.07,0.14,0.1,0.21,0.06
			c0.07-0.04,0.1-0.14,0.06-0.21L144.01,57.2c-0.03-0.05-0.07-0.07-0.13-0.08L128.34,56.32z"/>
		<path class="st0" d="M129.2,57.83c-0.03,0-0.06,0.01-0.08,0.02l0.17,0.29l13.81,0.71l14.41,24.97c0.04,0.07,0.14,0.1,0.21,0.06
			c0.07-0.04,0.1-0.14,0.06-0.21l-14.46-25.04c-0.03-0.05-0.07-0.07-0.13-0.08L129.2,57.83z"/>
		<path class="st0" d="M129.99,59.18c-0.03,0-0.06,0.01-0.08,0.02l0.17,0.29l12.41,0.64l14.37,24.9c0.04,0.07,0.14,0.1,0.21,0.06
			c0.07-0.04,0.1-0.14,0.06-0.21l-14.41-24.97c-0.03-0.05-0.07-0.07-0.13-0.08L129.99,59.18z"/>
		<path class="st0" d="M130.69,60.4c-0.03,0-0.06,0.01-0.08,0.02l0.17,0.29l11.15,0.57l14.3,24.77c0.04,0.07,0.14,0.1,0.21,0.06
			c0.07-0.04,0.1-0.14,0.06-0.21l-14.34-24.84c-0.03-0.05-0.07-0.07-0.13-0.08L130.69,60.4z"/>
	</g>
</g>
<g>
	<g>
		<path class="st1" d="M113.67,80.9c0.03-0.04,0.08-0.07,0.13-0.07h29.22c0.09,0,0.16,0.07,0.16,0.16c0,0.09-0.07,0.15-0.16,0.15
			h-29.13l-9.31,14.37h-0.34c0-0.03,0.01-0.06,0.03-0.08L113.67,80.9z"/>
		<path class="st1" d="M114.66,82.35c0.03-0.04,0.08-0.07,0.13-0.07h29.07c0.09,0,0.15,0.07,0.15,0.15c0,0.09-0.07,0.16-0.15,0.16
			h-28.99L106.5,95.5h-0.34c0-0.03,0.01-0.06,0.02-0.08L114.66,82.35z"/>
		<path class="st1" d="M115.55,83.65c0.03-0.04,0.08-0.07,0.13-0.07h28.91c0.09,0,0.16,0.07,0.16,0.15c0,0.09-0.07,0.15-0.16,0.15
			h-28.83l-7.52,11.61h-0.34c0-0.03,0.01-0.06,0.03-0.08L115.55,83.65z"/>
		<path class="st1" d="M116.35,84.83c0.03-0.04,0.08-0.07,0.13-0.07h28.83c0.08,0,0.15,0.07,0.15,0.15c0,0.09-0.07,0.15-0.15,0.15
			h-28.75L109.8,95.5h-0.34c0-0.03,0.01-0.06,0.02-0.08L116.35,84.83z"/>
		<path class="st1" d="M117.07,85.89c0.03-0.04,0.08-0.07,0.13-0.07h28.68c0.08,0,0.15,0.07,0.15,0.15c0,0.09-0.07,0.15-0.15,0.15
			h-28.6l-6.07,9.37h-0.34c0-0.03,0.01-0.06,0.02-0.08L117.07,85.89z"/>
		<path class="st1" d="M113.67,110.1l-9.41-14.52c-0.02-0.03-0.03-0.05-0.03-0.08h0.34l9.31,14.37h29.13c0.09,0,0.16,0.07,0.16,0.15
			c0,0.09-0.07,0.16-0.16,0.16H113.8C113.74,110.17,113.7,110.15,113.67,110.1z"/>
		<path class="st1" d="M106.19,95.58c-0.02-0.03-0.02-0.05-0.02-0.08h0.34l8.37,12.91h28.99c0.09,0,0.15,0.07,0.15,0.15
			c0,0.09-0.07,0.15-0.15,0.15h-29.07c-0.05,0-0.1-0.03-0.13-0.07L106.19,95.58z"/>
		<path class="st1" d="M107.93,95.58c-0.02-0.03-0.03-0.05-0.03-0.08h0.34l7.52,11.61h28.83c0.09,0,0.16,0.07,0.16,0.15
			c0,0.09-0.07,0.16-0.16,0.16h-28.91c-0.05,0-0.1-0.03-0.13-0.07L107.93,95.58z"/>
		<path class="st1" d="M109.49,95.58c-0.02-0.03-0.02-0.05-0.02-0.08h0.34l6.76,10.43h28.75c0.08,0,0.15,0.07,0.15,0.15
			c0,0.08-0.07,0.15-0.15,0.15h-28.83c-0.05,0-0.1-0.03-0.13-0.07L109.49,95.58z"/>
		<path class="st1" d="M110.9,95.58c-0.02-0.03-0.02-0.05-0.02-0.08h0.34l6.07,9.37h28.6c0.08,0,0.15,0.07,0.15,0.15
			c0,0.09-0.07,0.16-0.15,0.16H117.2c-0.05,0-0.1-0.03-0.13-0.07L110.9,95.58z"/>
	</g>
	<g>
		<path class="st1" d="M157.58,135.47c-0.05,0-0.1-0.03-0.12-0.08l-14.61-25.3c-0.04-0.07-0.02-0.17,0.06-0.21
			c0.07-0.04,0.17-0.02,0.21,0.06l14.57,25.23l17.1,0.88l0.17,0.29c-0.02,0.02-0.06,0.02-0.08,0.02L157.58,135.47z"/>
		<path class="st1" d="M158.34,133.89c-0.05,0-0.1-0.03-0.12-0.08l-14.54-25.18c-0.04-0.07-0.02-0.17,0.06-0.21
			c0.07-0.04,0.17-0.02,0.21,0.06l14.49,25.1l15.37,0.79l0.17,0.29c-0.03,0.02-0.05,0.02-0.08,0.02L158.34,133.89z"/>
		<path class="st1" d="M159.03,132.46c-0.05,0-0.1-0.03-0.13-0.08l-14.46-25.04c-0.04-0.07-0.02-0.17,0.06-0.21
			c0.07-0.04,0.17-0.02,0.21,0.06l14.42,24.97l13.81,0.71l0.17,0.29c-0.03,0.02-0.05,0.02-0.08,0.02L159.03,132.46z"/>
		<path class="st1" d="M159.65,131.18c-0.05,0-0.1-0.03-0.13-0.08l-14.41-24.97c-0.04-0.08-0.02-0.17,0.06-0.21
			c0.07-0.04,0.17-0.02,0.21,0.06l14.38,24.89l12.41,0.64l0.17,0.29c-0.03,0.01-0.05,0.02-0.08,0.02L159.65,131.18z"/>
		<path class="st1" d="M160.2,130.02c-0.05,0-0.1-0.03-0.12-0.08l-14.34-24.84c-0.04-0.07-0.02-0.17,0.06-0.21
			c0.07-0.04,0.17-0.02,0.21,0.06l14.3,24.77l11.15,0.58l0.17,0.29c-0.03,0.01-0.06,0.02-0.08,0.02L160.2,130.02z"/>
		<path class="st1" d="M182.87,120.87l-7.87,15.41c-0.01,0.03-0.04,0.05-0.06,0.06l-0.17-0.29l7.79-15.25l-14.57-25.23
			c-0.04-0.07-0.02-0.17,0.06-0.21c0.07-0.04,0.17-0.02,0.21,0.06l14.61,25.3C182.9,120.76,182.9,120.82,182.87,120.87z"/>
		<path class="st1" d="M174.04,134.6c-0.01,0.03-0.04,0.05-0.06,0.06l-0.17-0.29l7-13.71l-14.49-25.1
			c-0.04-0.07-0.02-0.17,0.06-0.21c0.07-0.04,0.17-0.02,0.21,0.06l14.53,25.18c0.03,0.05,0.03,0.1,0,0.15L174.04,134.6z"/>
		<path class="st1" d="M173.17,133.1c-0.01,0.03-0.04,0.05-0.06,0.06l-0.17-0.29l6.29-12.32l-14.41-24.97
			c-0.04-0.07-0.02-0.17,0.06-0.21c0.07-0.04,0.17-0.02,0.21,0.06l14.46,25.04c0.03,0.05,0.03,0.1,0,0.15L173.17,133.1z"/>
		<path class="st1" d="M172.39,131.74c-0.01,0.03-0.03,0.05-0.06,0.06l-0.17-0.29l5.65-11.07l-14.37-24.9
			c-0.04-0.07-0.02-0.17,0.06-0.21c0.07-0.04,0.17-0.02,0.21,0.06l14.41,24.97c0.03,0.05,0.03,0.1,0,0.15L172.39,131.74z"/>
		<path class="st1" d="M171.68,130.52c-0.01,0.03-0.04,0.05-0.06,0.06l-0.17-0.29l5.08-9.95l-14.3-24.77
			c-0.04-0.07-0.02-0.17,0.06-0.21c0.07-0.04,0.17-0.02,0.21,0.06l14.34,24.84c0.03,0.04,0.03,0.1,0,0.15L171.68,130.52z"/>
	</g>
	<g>
		<path class="st1" d="M182.87,70.14c0.03,0.05,0.02,0.1,0,0.15L168.26,95.6c-0.04,0.07-0.14,0.1-0.21,0.06
			c-0.07-0.04-0.1-0.14-0.06-0.21l14.57-25.23l-7.79-15.25l0.17-0.29c0.03,0.01,0.05,0.04,0.06,0.06L182.87,70.14z"/>
		<path class="st1" d="M181.12,70.28c0.02,0.05,0.02,0.1-0.01,0.15L166.58,95.6c-0.04,0.08-0.14,0.1-0.21,0.06
			c-0.07-0.04-0.1-0.14-0.06-0.21l14.49-25.1l-7-13.71l0.17-0.29c0.02,0.02,0.05,0.04,0.06,0.06L181.12,70.28z"/>
		<path class="st1" d="M179.55,70.39c0.02,0.05,0.02,0.1-0.01,0.15l-14.46,25.04c-0.04,0.07-0.14,0.1-0.21,0.06
			c-0.07-0.04-0.1-0.14-0.06-0.21l14.41-24.97l-6.29-12.32l0.17-0.29c0.03,0.01,0.05,0.04,0.06,0.06L179.55,70.39z"/>
		<path class="st1" d="M178.13,70.5c0.02,0.05,0.02,0.1-0.01,0.15l-14.41,24.97c-0.04,0.07-0.14,0.1-0.21,0.06
			c-0.07-0.04-0.1-0.14-0.06-0.21l14.37-24.9l-5.65-11.07l0.17-0.29c0.03,0.01,0.05,0.04,0.06,0.06L178.13,70.5z"/>
		<path class="st1" d="M176.85,70.6c0.03,0.05,0.02,0.1,0,0.15L162.5,95.58c-0.04,0.07-0.14,0.1-0.21,0.06
			c-0.07-0.04-0.1-0.14-0.06-0.21l14.3-24.77l-5.08-9.95l0.17-0.29c0.02,0.02,0.05,0.04,0.06,0.06L176.85,70.6z"/>
		<path class="st1" d="M157.58,55.54l17.28-0.89c0.03,0,0.06,0.01,0.08,0.02l-0.17,0.29l-17.1,0.88l-14.57,25.23
			c-0.04,0.07-0.14,0.1-0.21,0.06c-0.07-0.04-0.1-0.14-0.06-0.21l14.61-25.3C157.48,55.57,157.53,55.54,157.58,55.54z"/>
		<path class="st1" d="M173.9,56.32c0.03,0,0.06,0.01,0.08,0.02l-0.17,0.29l-15.37,0.79l-14.49,25.1c-0.04,0.07-0.14,0.1-0.21,0.06
			c-0.07-0.04-0.1-0.14-0.06-0.21l14.54-25.18c0.03-0.05,0.07-0.07,0.12-0.08L173.9,56.32z"/>
		<path class="st1" d="M173.03,57.83c0.03,0,0.06,0.01,0.08,0.02l-0.17,0.29l-13.81,0.71l-14.42,24.97
			c-0.04,0.07-0.14,0.1-0.21,0.06c-0.07-0.04-0.1-0.14-0.06-0.21l14.46-25.04c0.03-0.05,0.07-0.07,0.13-0.08L173.03,57.83z"/>
		<path class="st1" d="M172.24,59.18c0.03,0,0.06,0.01,0.08,0.02l-0.17,0.29l-12.41,0.64l-14.37,24.9c-0.04,0.07-0.14,0.1-0.21,0.06
			c-0.07-0.04-0.1-0.14-0.06-0.21l14.41-24.97c0.03-0.05,0.07-0.07,0.13-0.08L172.24,59.18z"/>
		<path class="st1" d="M171.54,60.4c0.03,0,0.06,0.01,0.08,0.02l-0.17,0.29l-11.15,0.57L146,86.06c-0.04,0.07-0.14,0.1-0.21,0.06
			c-0.07-0.04-0.1-0.14-0.06-0.21l14.34-24.84c0.03-0.05,0.07-0.07,0.13-0.08L171.54,60.4z"/>
	</g>
</g>
<path class="st1" d="M70.31,47.51l14.56-25.22c0.03-0.05,0.03-0.1,0-0.15L77.01,6.73c-0.01-0.03-0.04-0.05-0.06-0.06
	c-0.02-0.01-0.05-0.02-0.08-0.02L59.58,7.54c-0.05,0-0.1,0.03-0.12,0.08L44.9,32.82H15.8c-0.05,0-0.1,0.03-0.13,0.07L6.25,47.42
	c-0.02,0.03-0.03,0.05-0.03,0.08c0,0.03,0.01,0.06,0.03,0.08l9.41,14.52c0.03,0.04,0.08,0.07,0.13,0.07h29.1l14.56,25.22
	c0.03,0.05,0.07,0.07,0.12,0.08l17.28,0.89c0.03,0,0.06,0,0.08-0.02l-0.17-0.29l-17.1-0.88L45.17,62.03c0,0,0,0,0-0.01
	c0-0.08-0.06-0.13-0.13-0.14c-0.01-0.01-0.03-0.01-0.04-0.01H15.88L6.57,47.5l9.31-14.37H44.9c0.06,0.03,0.12,0.01,0.16-0.02
	c0.06-0.02,0.1-0.07,0.1-0.13c0,0,0,0,0,0L59.68,7.84l17.1-0.88l7.79,15.25L70.02,47.4c-0.03,0.03-0.04,0.07-0.03,0.11
	c0,0.04,0.01,0.07,0.03,0.1L84.56,72.8l-7.79,15.25l0.17,0.29c0.03-0.01,0.05-0.03,0.06-0.06l7.87-15.41c0.02-0.05,0.02-0.1,0-0.15
	L70.31,47.51z"/>
<path class="st1" d="M68.64,47.5l14.48-25.08c0.03-0.05,0.03-0.1,0.01-0.15L76.04,8.41C76.03,8.38,76,8.36,75.98,8.34
	c-0.03-0.01-0.06-0.02-0.08-0.02l-15.55,0.8c-0.05,0-0.1,0.03-0.12,0.08L45.74,34.28H16.79c-0.05,0-0.1,0.03-0.13,0.07L8.19,47.42
	c-0.02,0.03-0.02,0.05-0.02,0.08c0,0.03,0.01,0.06,0.02,0.08l8.47,13.07c0.03,0.04,0.08,0.07,0.13,0.07h28.95l14.48,25.09
	c0.03,0.05,0.07,0.07,0.12,0.08l15.55,0.8c0.03,0,0.06-0.01,0.08-0.02l-0.17-0.29l-15.37-0.79l-14.44-25c0,0,0-0.01,0-0.01
	c0-0.08-0.06-0.14-0.14-0.15c-0.02-0.01-0.04-0.01-0.06-0.01H16.87L8.5,47.5l8.37-12.91h28.87c0,0,0,0,0,0
	c0.06,0.03,0.11,0.02,0.16-0.02c0.06-0.02,0.11-0.07,0.11-0.14c0,0,0,0,0,0l14.43-25l15.37-0.79l7,13.71L68.35,47.38
	c-0.04,0.03-0.05,0.08-0.05,0.13c-0.01,0.05,0.01,0.09,0.05,0.13l14.45,25.04l-7,13.71l0.17,0.29c0.03-0.01,0.05-0.03,0.06-0.06
	l7.08-13.87c0.02-0.05,0.02-0.1,0-0.15L68.64,47.5z"/>
<path class="st1" d="M67.13,47.5l14.41-24.96c0.03-0.05,0.03-0.1,0.01-0.15L75.17,9.91c-0.01-0.03-0.04-0.05-0.06-0.06
	c-0.03-0.02-0.05-0.02-0.08-0.02l-14,0.72c-0.05,0-0.1,0.03-0.13,0.08L46.49,35.58H17.68c-0.05,0-0.1,0.03-0.13,0.07L9.93,47.42
	C9.91,47.44,9.9,47.47,9.9,47.5c0,0.03,0.01,0.06,0.03,0.08l7.62,11.76c0.03,0.04,0.08,0.07,0.13,0.07h28.81L60.9,84.38
	c0.03,0.05,0.07,0.07,0.13,0.08l14,0.72c0.03,0,0.06-0.01,0.08-0.02l-0.17-0.29l-13.81-0.71l-14.4-24.94
	c-0.02-0.05-0.05-0.08-0.1-0.1c0,0,0,0-0.01,0c-0.01,0-0.02-0.01-0.03-0.01H17.76L10.24,47.5l7.52-11.61h28.83c0,0,0,0,0.01,0
	c0.02,0,0.04-0.01,0.06-0.02c0.02-0.01,0.04-0.02,0.06-0.05c0,0,0,0,0,0l14.42-24.97l13.81-0.71l0.01,0.02l6.28,12.3L66.82,47.43
	c0,0.01,0,0.01,0,0.02c-0.01,0.02-0.01,0.04-0.01,0.06c0,0.02,0,0.04,0.01,0.06c0,0.01,0,0.01,0,0.02l14.41,24.97l-6.29,12.32
	l0.17,0.29c0.03-0.01,0.05-0.04,0.06-0.06l6.37-12.48c0.02-0.05,0.02-0.1,0-0.15L67.13,47.5z"/>
<path class="st1" d="M64.55,47.51l14.3-24.76c0.03-0.05,0.03-0.1,0-0.15l-5.16-10.11c-0.01-0.03-0.04-0.05-0.06-0.06
	c-0.03-0.01-0.06-0.02-0.08-0.02L62.2,12.99c-0.05,0-0.1,0.03-0.13,0.08L47.78,37.82H19.2c-0.05,0-0.1,0.03-0.13,0.07l-6.17,9.53
	c-0.02,0.03-0.02,0.05-0.02,0.08c0,0.03,0.01,0.06,0.02,0.08l6.17,9.53c0.03,0.04,0.08,0.07,0.13,0.07h28.58l14.3,24.77
	c0.03,0.04,0.07,0.07,0.12,0.08l11.34,0.58c0.03,0,0.06,0,0.08-0.02l-0.17-0.29L62.3,81.72L48.02,56.99
	c-0.02-0.05-0.05-0.09-0.11-0.1c0,0,0,0-0.01,0c-0.01,0-0.01-0.01-0.02-0.01h-28.6l-6.07-9.37l6.07-9.37h28.6c0,0,0,0,0,0
	c0.02,0,0.04-0.01,0.06-0.02c0.03-0.01,0.05-0.03,0.06-0.05l14.3-24.76l11.15-0.57l5.08,9.95l-14.3,24.77c0,0,0,0.01,0,0.02
	c-0.01,0.02-0.01,0.04-0.01,0.06c0,0.02,0,0.04,0.01,0.06c0,0.01,0,0.01,0,0.02l14.3,24.77l-5.08,9.95l0.17,0.29
	c0.02-0.01,0.05-0.03,0.06-0.06l5.16-10.11c0.03-0.05,0.02-0.1,0-0.15L64.55,47.51z"/>
<path class="st1" d="M65.77,47.5l14.35-24.86c0.03-0.04,0.03-0.1,0.01-0.15l-5.74-11.23c-0.01-0.03-0.03-0.05-0.06-0.06l0,0l0,0
	c-0.03-0.01-0.05-0.02-0.08-0.02l-12.6,0.65c-0.05,0-0.1,0.03-0.13,0.08L47.17,36.76H18.48c-0.05,0-0.1,0.03-0.13,0.07l-6.86,10.59
	c-0.02,0.03-0.02,0.05-0.02,0.08c0,0.03,0.01,0.06,0.02,0.08l6.86,10.59c0.03,0.04,0.08,0.07,0.13,0.07h28.69L61.52,83.1
	c0.03,0.05,0.07,0.07,0.13,0.08l12.6,0.65c0.03,0,0.06-0.01,0.08-0.02l-0.17-0.29l-12.41-0.64l-14.3-24.76
	c0-0.01,0.01-0.02,0.01-0.03c0-0.08-0.07-0.15-0.15-0.15h0c-0.05-0.03-0.1-0.04-0.15-0.01c0,0,0,0.01-0.01,0.01H18.56L11.8,47.5
	l6.76-10.43h28.58c0.01,0.01,0.01,0.01,0.01,0.02c0.06,0.03,0.13,0.01,0.18-0.03c0.07-0.01,0.13-0.07,0.13-0.14
	c0-0.01-0.01-0.02-0.01-0.02l14.29-24.75l12.41-0.64l0,0l5.65,11.07l-14.3,24.77c-0.01,0-0.01,0-0.02,0
	c-0.06,0.03-0.08,0.1-0.06,0.17c-0.01,0.06,0,0.13,0.06,0.17c0,0,0.01,0,0.02,0l14.3,24.77l-5.65,11.07l0.17,0.29
	c0.03-0.01,0.05-0.04,0.06-0.06l5.74-11.23c0.03-0.05,0.02-0.1,0-0.15L65.77,47.5z"/>
</svg>
