<?xml version="1.0" encoding="utf-8"?>
<!-- Generator: Adobe Illustrator 23.0.2, SVG Export Plug-In . SVG Version: 6.00 Build 0)  -->
<svg version="1.1" id="圖層_1" xmlns="http://www.w3.org/2000/svg" xmlns:xlink="http://www.w3.org/1999/xlink" x="0px" y="0px"
	 viewBox="0 0 500 310" style="enable-background:new 0 0 500 310;" xml:space="preserve">
<style type="text/css">
	.st0{fill:#9E9E9E;}
	.st1{fill:#DFDFDF;stroke:#6B6B6B;stroke-width:1.5;stroke-miterlimit:10;}
	.st2{fill:none;stroke:#000000;stroke-width:0.25;stroke-linecap:round;stroke-linejoin:round;stroke-miterlimit:10;}
	.st3{fill:none;stroke:#6B6B6B;stroke-miterlimit:10;stroke-dasharray:2;}
	.st4{fill:none;stroke:#6B6B6B;stroke-width:3;stroke-miterlimit:10;}
	.st5{fill:#DFDFDF;stroke:#6B6B6B;stroke-width:2;stroke-miterlimit:10;}
	.st6{fill:#676767;stroke:#333333;stroke-width:2;stroke-miterlimit:10;}
	.st7{fill:#726D6D;stroke:#6B6B6B;stroke-width:3;stroke-miterlimit:10;}
	.st8{font-family:'PatuaOne-Regular';}
	.st9{font-size:6.3617px;}
	.st10{stroke:#6B6B6B;stroke-width:3;stroke-miterlimit:10;}
	.st11{fill:none;stroke:#6B6B6B;stroke-width:2;stroke-miterlimit:10;}
	.st12{fill:none;stroke:#6B6B6B;stroke-width:1.5;stroke-miterlimit:10;}
	.st13{fill:#F2F2F2;}
</style>
<path class="st0" d="M88.95,35.17h115.42V14.73c36.5,2.27,73.01,4.54,109.51,6.82c7.43-0.21,15-0.51,22.72-0.91
	c7.41-0.38,14.68-0.84,21.81-1.36c5.99-2.07,13.16-4.06,21.36-5.45c6.66-1.13,12.78-1.65,18.18-1.82c3.59,0.04,8.3,0.43,13.63,1.82
	c5.3,1.37,9.58,3.3,12.72,5c3.26,2.43,7.25,6.07,10.45,11.36c3.65,6.05,4.91,11.99,5.45,16.36c1.59,12.77,7.33,94.54,14.09,206.76
	l11.81,31.35H106.67c0.3-36.5,0.61-73.01,0.91-109.51c-0.05-2.08-0.33-4.94-1.36-8.18c-0.92-2.89-2.14-5.17-3.18-6.82
	c-1-0.96-2.5-2.18-4.54-3.18c-2.94-1.44-5.64-1.76-7.27-1.82c-7.57-0.15-15.15-0.3-22.72-0.45V56.53l5-3.18h15L88.95,35.17z"/>
<polygon class="st1" points="202.78,233.98 222.32,233.98 222.32,267.6 220.95,267.6 220.95,270.79 205.05,270.79 205.05,248.97 
	202.78,248.97 "/>
<polyline class="st1" points="232.2,246.93 232.2,272.15 251.85,272.15 251.85,246.93 232.2,246.93 "/>
<polyline class="st1" points="280.94,240.57 280.94,246.25 267.3,246.25 267.3,249.43 265.03,249.43 265.03,266.7 268.67,266.7 
	268.67,272.15 290.02,272.15 290.02,240.57 280.94,240.57 "/>
<polyline class="st1" points="307.06,228.62 348.19,228.53 348.19,234.43 357.73,234.43 357.73,256.7 344.55,256.7 344.55,261.7 
	353.64,261.7 353.64,271.24 306.84,271.24 307.06,228.62 "/>
<rect x="362.27" y="234.43" class="st1" width="19.99" height="9.09"/>
<path class="st1" d="M129.85,188.31h19.99l-0.45,31.35c-5.53,0.08-11.06,0.15-16.59,0.23c0-1.67,0-3.33,0-5
	c-0.98-0.08-1.97-0.15-2.95-0.23V188.31z"/>
<polygon class="st1" points="133.25,127.65 149.16,127.65 149.16,149 129.16,148.55 129.16,135.83 133.25,135.83 "/>
<polygon class="st1" points="131.89,72.66 160.52,77.21 158.25,95.38 154.61,94.48 150.98,115.38 129.16,111.29 132.8,90.84 
	128.71,89.93 "/>
<polygon class="st1" points="195.05,87.2 200.51,87.66 206.41,79.03 216.41,85.39 209.59,96.75 193.69,94.93 "/>
<ellipse transform="matrix(0.5139 -0.8578 0.8578 0.5139 25.3715 237.8172)" class="st1" cx="222.54" cy="96.52" rx="10.25" ry="6.95"/>
<polygon class="st1" points="279.57,124.01 290.93,131.28 283.4,143.14 271.85,135.83 "/>
<polyline class="st1" points="354.08,170.51 364.55,177.63 357.28,189.9 346.37,182.18 354.08,170.51 "/>
<path class="st1" d="M423.62,193.99c3.64,0,7.27,0,10.91,0c0,4.39,0,8.79,0,13.18c-4.7,0-9.39,0-14.09,0v-5.91h3.18
	C423.62,198.84,423.62,196.41,423.62,193.99z"/>
<polygon class="st1" points="216.41,64.03 234.59,64.03 234.59,40.4 253.67,40.4 331.37,89.93 324.1,103.11 342.74,115.38 
	325.01,144.46 216.41,74.94 "/>
<path class="st1" d="M354.1,163.09l19.99-32.72l-24.99-16.81c-0.45,0.76-0.91,1.51-1.36,2.27c-0.45-0.3-0.91-0.61-1.36-0.91
	L329.1,143.1c0.61,0.45,1.21,0.91,1.82,1.36c-0.45,0.91-0.91,1.82-1.36,2.73L354.1,163.09z"/>
<polygon class="st1" points="360.91,167.18 392.27,115.38 429.98,139.92 431.34,169 410.44,170.82 411.35,192.17 399.99,192.17 "/>
<g>
	<g>
		<polyline class="st2" points="359.96,222.79 355.75,222.79 355.75,225.63 		"/>
	</g>
	<g>
		<line class="st2" x1="355.75" y1="225.63" x2="359.96" y2="225.63"/>
	</g>
	<g>
		<polygon class="st2" points="392.43,225.63 393.17,225.63 393.17,222.79 392.43,222.79 392.43,222.69 355.75,222.69 
			355.75,222.79 355,222.79 355,225.63 355.75,225.63 355.75,225.73 392.43,225.73 		"/>
	</g>
	<g>
		<line class="st2" x1="359.96" y1="222.79" x2="359.96" y2="225.63"/>
	</g>
	<g>
		<line class="st2" x1="359.22" y1="222.79" x2="359.22" y2="225.63"/>
	</g>
	<g>
		<line class="st2" x1="360.7" y1="222.79" x2="360.7" y2="225.63"/>
	</g>
	<g>
		<line class="st2" x1="361.45" y1="222.79" x2="361.45" y2="225.63"/>
	</g>
	<g>
		<line class="st2" x1="362.19" y1="222.79" x2="362.19" y2="225.63"/>
	</g>
	<g>
		<line class="st2" x1="362.93" y1="222.79" x2="362.93" y2="225.63"/>
	</g>
	<g>
		<line class="st2" x1="363.68" y1="222.79" x2="363.68" y2="225.63"/>
	</g>
	<g>
		<line class="st2" x1="364.42" y1="222.79" x2="364.42" y2="225.63"/>
	</g>
	<g>
		<polyline class="st2" points="359.96,226.04 355.75,226.04 355.75,228.88 		"/>
	</g>
	<g>
		<line class="st2" x1="355.75" y1="228.88" x2="359.96" y2="228.88"/>
	</g>
	<g>
		<line class="st2" x1="359.96" y1="226.04" x2="359.96" y2="228.88"/>
	</g>
	<g>
		<line class="st2" x1="359.22" y1="226.04" x2="359.22" y2="228.88"/>
	</g>
	<g>
		<line class="st2" x1="360.7" y1="226.04" x2="360.7" y2="228.88"/>
	</g>
	<g>
		<line class="st2" x1="361.45" y1="226.04" x2="361.45" y2="228.88"/>
	</g>
	<g>
		<line class="st2" x1="362.19" y1="226.04" x2="362.19" y2="228.88"/>
	</g>
	<g>
		<line class="st2" x1="362.93" y1="226.04" x2="362.93" y2="228.88"/>
	</g>
	<g>
		<line class="st2" x1="363.68" y1="226.04" x2="363.68" y2="228.88"/>
	</g>
	<g>
		<line class="st2" x1="364.42" y1="226.04" x2="364.42" y2="228.88"/>
	</g>
	<g>
		<polyline class="st2" points="388.99,222.79 392.43,222.79 392.43,225.63 		"/>
	</g>
	<g>
		<line class="st2" x1="392.43" y1="225.63" x2="388.99" y2="225.63"/>
	</g>
	<g>
		<line class="st2" x1="366.65" y1="222.79" x2="366.65" y2="225.63"/>
	</g>
	<g>
		<line class="st2" x1="365.91" y1="222.79" x2="365.91" y2="225.63"/>
	</g>
	<g>
		<line class="st2" x1="365.17" y1="222.79" x2="365.17" y2="225.63"/>
	</g>
	<g>
		<polyline class="st2" points="388.99,226.04 392.43,226.04 392.43,228.88 		"/>
	</g>
	<g>
		<line class="st2" x1="392.43" y1="228.88" x2="388.99" y2="228.88"/>
	</g>
	<g>
		<polygon class="st2" points="355.75,228.88 355,228.88 355,226.04 355.75,226.04 355.75,225.94 392.43,225.94 392.43,226.04 
			393.17,226.04 393.17,228.88 392.43,228.88 392.43,228.98 355.75,228.98 		"/>
	</g>
	<g>
		<line class="st2" x1="366.65" y1="226.04" x2="366.65" y2="228.88"/>
	</g>
	<g>
		<line class="st2" x1="365.91" y1="226.04" x2="365.91" y2="228.88"/>
	</g>
	<g>
		<line class="st2" x1="365.17" y1="226.04" x2="365.17" y2="228.88"/>
	</g>
	<g>
		<line class="st2" x1="359.96" y1="222.79" x2="388.99" y2="222.79"/>
	</g>
	<g>
		<line class="st2" x1="359.96" y1="228.88" x2="388.99" y2="228.88"/>
	</g>
	<g>
		<line class="st2" x1="359.96" y1="225.63" x2="388.99" y2="225.63"/>
	</g>
	<g>
		<line class="st2" x1="359.96" y1="226.04" x2="388.99" y2="226.04"/>
	</g>
	<g>
		<line class="st2" x1="367.4" y1="222.79" x2="367.4" y2="225.63"/>
	</g>
	<g>
		<line class="st2" x1="368.14" y1="222.79" x2="368.14" y2="225.63"/>
	</g>
	<g>
		<line class="st2" x1="368.88" y1="222.79" x2="368.88" y2="225.63"/>
	</g>
	<g>
		<line class="st2" x1="369.63" y1="222.79" x2="369.63" y2="225.63"/>
	</g>
	<g>
		<line class="st2" x1="370.37" y1="222.79" x2="370.37" y2="225.63"/>
	</g>
	<g>
		<line class="st2" x1="371.11" y1="222.79" x2="371.11" y2="225.63"/>
	</g>
	<g>
		<line class="st2" x1="367.4" y1="226.04" x2="367.4" y2="228.88"/>
	</g>
	<g>
		<line class="st2" x1="368.14" y1="226.04" x2="368.14" y2="228.88"/>
	</g>
	<g>
		<line class="st2" x1="368.88" y1="226.04" x2="368.88" y2="228.88"/>
	</g>
	<g>
		<line class="st2" x1="369.63" y1="226.04" x2="369.63" y2="228.88"/>
	</g>
	<g>
		<line class="st2" x1="370.37" y1="226.04" x2="370.37" y2="228.88"/>
	</g>
	<g>
		<line class="st2" x1="371.11" y1="226.04" x2="371.11" y2="228.88"/>
	</g>
	<g>
		<line class="st2" x1="373.35" y1="222.79" x2="373.35" y2="225.63"/>
	</g>
	<g>
		<line class="st2" x1="372.6" y1="222.79" x2="372.6" y2="225.63"/>
	</g>
	<g>
		<line class="st2" x1="371.86" y1="222.79" x2="371.86" y2="225.63"/>
	</g>
	<g>
		<line class="st2" x1="373.35" y1="226.04" x2="373.35" y2="228.88"/>
	</g>
	<g>
		<line class="st2" x1="372.6" y1="226.04" x2="372.6" y2="228.88"/>
	</g>
	<g>
		<line class="st2" x1="371.86" y1="226.04" x2="371.86" y2="228.88"/>
	</g>
	<g>
		<line class="st2" x1="374.09" y1="222.79" x2="374.09" y2="225.63"/>
	</g>
	<g>
		<line class="st2" x1="374.83" y1="222.79" x2="374.83" y2="225.63"/>
	</g>
	<g>
		<line class="st2" x1="375.58" y1="222.79" x2="375.58" y2="225.63"/>
	</g>
	<g>
		<line class="st2" x1="376.32" y1="222.79" x2="376.32" y2="225.63"/>
	</g>
	<g>
		<line class="st2" x1="377.06" y1="222.79" x2="377.06" y2="225.63"/>
	</g>
	<g>
		<line class="st2" x1="377.81" y1="222.79" x2="377.81" y2="225.63"/>
	</g>
	<g>
		<line class="st2" x1="374.09" y1="226.04" x2="374.09" y2="228.88"/>
	</g>
	<g>
		<line class="st2" x1="374.83" y1="226.04" x2="374.83" y2="228.88"/>
	</g>
	<g>
		<line class="st2" x1="375.58" y1="226.04" x2="375.58" y2="228.88"/>
	</g>
	<g>
		<line class="st2" x1="376.32" y1="226.04" x2="376.32" y2="228.88"/>
	</g>
	<g>
		<line class="st2" x1="377.06" y1="226.04" x2="377.06" y2="228.88"/>
	</g>
	<g>
		<line class="st2" x1="377.81" y1="226.04" x2="377.81" y2="228.88"/>
	</g>
	<g>
		<line class="st2" x1="380.04" y1="222.79" x2="380.04" y2="225.63"/>
	</g>
	<g>
		<line class="st2" x1="379.29" y1="222.79" x2="379.29" y2="225.63"/>
	</g>
	<g>
		<line class="st2" x1="378.55" y1="222.79" x2="378.55" y2="225.63"/>
	</g>
	<g>
		<line class="st2" x1="380.04" y1="226.04" x2="380.04" y2="228.88"/>
	</g>
	<g>
		<line class="st2" x1="379.29" y1="226.04" x2="379.29" y2="228.88"/>
	</g>
	<g>
		<line class="st2" x1="378.55" y1="226.04" x2="378.55" y2="228.88"/>
	</g>
	<g>
		<line class="st2" x1="380.78" y1="222.79" x2="380.78" y2="225.63"/>
	</g>
	<g>
		<line class="st2" x1="381.52" y1="222.79" x2="381.52" y2="225.63"/>
	</g>
	<g>
		<line class="st2" x1="382.27" y1="222.79" x2="382.27" y2="225.63"/>
	</g>
	<g>
		<line class="st2" x1="383.01" y1="222.79" x2="383.01" y2="225.63"/>
	</g>
	<g>
		<line class="st2" x1="383.76" y1="222.79" x2="383.76" y2="225.63"/>
	</g>
	<g>
		<line class="st2" x1="384.5" y1="222.79" x2="384.5" y2="225.63"/>
	</g>
	<g>
		<line class="st2" x1="380.78" y1="226.04" x2="380.78" y2="228.88"/>
	</g>
	<g>
		<line class="st2" x1="381.52" y1="226.04" x2="381.52" y2="228.88"/>
	</g>
	<g>
		<line class="st2" x1="382.27" y1="226.04" x2="382.27" y2="228.88"/>
	</g>
	<g>
		<line class="st2" x1="383.01" y1="226.04" x2="383.01" y2="228.88"/>
	</g>
	<g>
		<line class="st2" x1="383.76" y1="226.04" x2="383.76" y2="228.88"/>
	</g>
	<g>
		<line class="st2" x1="384.5" y1="226.04" x2="384.5" y2="228.88"/>
	</g>
	<g>
		<line class="st2" x1="386.73" y1="222.79" x2="386.73" y2="225.63"/>
	</g>
	<g>
		<line class="st2" x1="385.99" y1="222.79" x2="385.99" y2="225.63"/>
	</g>
	<g>
		<line class="st2" x1="385.24" y1="222.79" x2="385.24" y2="225.63"/>
	</g>
	<g>
		<line class="st2" x1="386.73" y1="226.04" x2="386.73" y2="228.88"/>
	</g>
	<g>
		<line class="st2" x1="385.99" y1="226.04" x2="385.99" y2="228.88"/>
	</g>
	<g>
		<line class="st2" x1="385.24" y1="226.04" x2="385.24" y2="228.88"/>
	</g>
	<g>
		<line class="st2" x1="387.47" y1="222.79" x2="387.47" y2="225.63"/>
	</g>
	<g>
		<line class="st2" x1="388.22" y1="222.79" x2="388.22" y2="225.63"/>
	</g>
	<g>
		<line class="st2" x1="388.96" y1="222.79" x2="388.96" y2="225.63"/>
	</g>
	<g>
		<line class="st2" x1="387.47" y1="226.04" x2="387.47" y2="228.88"/>
	</g>
	<g>
		<line class="st2" x1="388.22" y1="226.04" x2="388.22" y2="228.88"/>
	</g>
	<g>
		<line class="st2" x1="388.96" y1="226.04" x2="388.96" y2="228.88"/>
	</g>
	<g>
		<line class="st2" x1="392.43" y1="222.79" x2="392.43" y2="225.63"/>
	</g>
	<g>
		<line class="st2" x1="392.43" y1="226.04" x2="392.43" y2="228.88"/>
	</g>
</g>
<g>
	<g>
		<polyline class="st2" points="182.79,82.83 183.55,78.99 179.46,78.51 		"/>
	</g>
	<g>
		<line class="st2" x1="179.46" y1="78.51" x2="178.71" y2="82.35"/>
	</g>
	<g>
		<polygon class="st2" points="172.9,111.93 172.76,112.61 176.85,113.09 176.98,112.41 177.13,112.43 183.69,79.01 183.55,78.99 
			183.68,78.32 179.59,77.84 179.46,78.51 179.31,78.49 172.75,111.92 		"/>
	</g>
	<g>
		<line class="st2" x1="182.79" y1="82.83" x2="178.71" y2="82.35"/>
	</g>
	<g>
		<line class="st2" x1="182.93" y1="82.15" x2="178.84" y2="81.67"/>
	</g>
	<g>
		<line class="st2" x1="182.66" y1="83.51" x2="178.57" y2="83.03"/>
	</g>
	<g>
		<line class="st2" x1="182.53" y1="84.19" x2="178.44" y2="83.71"/>
	</g>
	<g>
		<line class="st2" x1="182.39" y1="84.86" x2="178.31" y2="84.38"/>
	</g>
	<g>
		<line class="st2" x1="182.26" y1="85.54" x2="178.17" y2="85.06"/>
	</g>
	<g>
		<line class="st2" x1="182.13" y1="86.22" x2="178.04" y2="85.74"/>
	</g>
	<g>
		<line class="st2" x1="181.99" y1="86.9" x2="177.91" y2="86.42"/>
	</g>
	<g>
		<polyline class="st2" points="178.12,82.28 178.88,78.44 174.79,77.96 		"/>
	</g>
	<g>
		<line class="st2" x1="174.79" y1="77.96" x2="174.04" y2="81.8"/>
	</g>
	<g>
		<line class="st2" x1="178.12" y1="82.28" x2="174.04" y2="81.8"/>
	</g>
	<g>
		<line class="st2" x1="178.26" y1="81.6" x2="174.17" y2="81.12"/>
	</g>
	<g>
		<line class="st2" x1="177.99" y1="82.96" x2="173.9" y2="82.48"/>
	</g>
	<g>
		<line class="st2" x1="177.86" y1="83.64" x2="173.77" y2="83.16"/>
	</g>
	<g>
		<line class="st2" x1="177.72" y1="84.32" x2="173.64" y2="83.84"/>
	</g>
	<g>
		<line class="st2" x1="177.59" y1="84.99" x2="173.5" y2="84.51"/>
	</g>
	<g>
		<line class="st2" x1="177.46" y1="85.67" x2="173.37" y2="85.19"/>
	</g>
	<g>
		<line class="st2" x1="177.32" y1="86.35" x2="173.24" y2="85.87"/>
	</g>
	<g>
		<polyline class="st2" points="177.6,109.28 176.98,112.41 172.9,111.93 		"/>
	</g>
	<g>
		<line class="st2" x1="172.9" y1="111.93" x2="173.51" y2="108.8"/>
	</g>
	<g>
		<line class="st2" x1="181.6" y1="88.93" x2="177.51" y2="88.45"/>
	</g>
	<g>
		<line class="st2" x1="181.73" y1="88.25" x2="177.64" y2="87.77"/>
	</g>
	<g>
		<line class="st2" x1="181.86" y1="87.57" x2="177.78" y2="87.09"/>
	</g>
	<g>
		<polyline class="st2" points="172.93,108.73 172.31,111.87 168.23,111.39 		"/>
	</g>
	<g>
		<line class="st2" x1="168.23" y1="111.39" x2="168.84" y2="108.25"/>
	</g>
	<g>
		<polygon class="st2" points="174.79,77.96 174.92,77.29 179.01,77.77 178.88,78.44 179.02,78.46 172.46,111.88 172.31,111.87 
			172.18,112.54 168.09,112.06 168.23,111.39 168.08,111.37 174.64,77.95 		"/>
	</g>
	<g>
		<line class="st2" x1="176.93" y1="88.38" x2="172.84" y2="87.9"/>
	</g>
	<g>
		<line class="st2" x1="177.06" y1="87.7" x2="172.97" y2="87.22"/>
	</g>
	<g>
		<line class="st2" x1="177.19" y1="87.02" x2="173.11" y2="86.54"/>
	</g>
	<g>
		<line class="st2" x1="182.79" y1="82.83" x2="177.6" y2="109.28"/>
	</g>
	<g>
		<line class="st2" x1="174.04" y1="81.8" x2="168.84" y2="108.25"/>
	</g>
	<g>
		<line class="st2" x1="178.71" y1="82.35" x2="173.51" y2="108.8"/>
	</g>
	<g>
		<line class="st2" x1="178.12" y1="82.28" x2="172.93" y2="108.73"/>
	</g>
	<g>
		<line class="st2" x1="181.46" y1="89.61" x2="177.38" y2="89.13"/>
	</g>
	<g>
		<line class="st2" x1="181.33" y1="90.28" x2="177.24" y2="89.8"/>
	</g>
	<g>
		<line class="st2" x1="181.2" y1="90.96" x2="177.11" y2="90.48"/>
	</g>
	<g>
		<line class="st2" x1="181.06" y1="91.64" x2="176.98" y2="91.16"/>
	</g>
	<g>
		<line class="st2" x1="180.93" y1="92.32" x2="176.84" y2="91.84"/>
	</g>
	<g>
		<line class="st2" x1="180.8" y1="92.99" x2="176.71" y2="92.51"/>
	</g>
	<g>
		<line class="st2" x1="176.79" y1="89.06" x2="172.71" y2="88.58"/>
	</g>
	<g>
		<line class="st2" x1="176.66" y1="89.73" x2="172.57" y2="89.25"/>
	</g>
	<g>
		<line class="st2" x1="176.53" y1="90.41" x2="172.44" y2="89.93"/>
	</g>
	<g>
		<line class="st2" x1="176.39" y1="91.09" x2="172.31" y2="90.61"/>
	</g>
	<g>
		<line class="st2" x1="176.26" y1="91.77" x2="172.17" y2="91.29"/>
	</g>
	<g>
		<line class="st2" x1="176.13" y1="92.45" x2="172.04" y2="91.96"/>
	</g>
	<g>
		<line class="st2" x1="180.4" y1="95.03" x2="176.31" y2="94.55"/>
	</g>
	<g>
		<line class="st2" x1="180.53" y1="94.35" x2="176.44" y2="93.87"/>
	</g>
	<g>
		<line class="st2" x1="180.66" y1="93.67" x2="176.58" y2="93.19"/>
	</g>
	<g>
		<line class="st2" x1="175.73" y1="94.48" x2="171.64" y2="94"/>
	</g>
	<g>
		<line class="st2" x1="175.86" y1="93.8" x2="171.77" y2="93.32"/>
	</g>
	<g>
		<line class="st2" x1="175.99" y1="93.12" x2="171.91" y2="92.64"/>
	</g>
	<g>
		<line class="st2" x1="180.26" y1="95.7" x2="176.18" y2="95.22"/>
	</g>
	<g>
		<line class="st2" x1="180.13" y1="96.38" x2="176.05" y2="95.9"/>
	</g>
	<g>
		<line class="st2" x1="180" y1="97.06" x2="175.91" y2="96.58"/>
	</g>
	<g>
		<line class="st2" x1="179.87" y1="97.74" x2="175.78" y2="97.26"/>
	</g>
	<g>
		<line class="st2" x1="179.73" y1="98.41" x2="175.65" y2="97.93"/>
	</g>
	<g>
		<line class="st2" x1="179.6" y1="99.09" x2="175.51" y2="98.61"/>
	</g>
	<g>
		<line class="st2" x1="175.59" y1="95.15" x2="171.51" y2="94.67"/>
	</g>
	<g>
		<line class="st2" x1="175.46" y1="95.83" x2="171.38" y2="95.35"/>
	</g>
	<g>
		<line class="st2" x1="175.33" y1="96.51" x2="171.24" y2="96.03"/>
	</g>
	<g>
		<line class="st2" x1="175.2" y1="97.19" x2="171.11" y2="96.71"/>
	</g>
	<g>
		<line class="st2" x1="175.06" y1="97.86" x2="170.98" y2="97.38"/>
	</g>
	<g>
		<line class="st2" x1="174.93" y1="98.54" x2="170.84" y2="98.06"/>
	</g>
	<g>
		<line class="st2" x1="179.2" y1="101.12" x2="175.11" y2="100.64"/>
	</g>
	<g>
		<line class="st2" x1="179.33" y1="100.45" x2="175.25" y2="99.97"/>
	</g>
	<g>
		<line class="st2" x1="179.47" y1="99.77" x2="175.38" y2="99.29"/>
	</g>
	<g>
		<line class="st2" x1="174.53" y1="100.57" x2="170.44" y2="100.09"/>
	</g>
	<g>
		<line class="st2" x1="174.66" y1="99.9" x2="170.58" y2="99.42"/>
	</g>
	<g>
		<line class="st2" x1="174.8" y1="99.22" x2="170.71" y2="98.74"/>
	</g>
	<g>
		<line class="st2" x1="179.07" y1="101.8" x2="174.98" y2="101.32"/>
	</g>
	<g>
		<line class="st2" x1="178.93" y1="102.48" x2="174.85" y2="102"/>
	</g>
	<g>
		<line class="st2" x1="178.8" y1="103.16" x2="174.71" y2="102.68"/>
	</g>
	<g>
		<line class="st2" x1="178.67" y1="103.83" x2="174.58" y2="103.35"/>
	</g>
	<g>
		<line class="st2" x1="178.54" y1="104.51" x2="174.45" y2="104.03"/>
	</g>
	<g>
		<line class="st2" x1="178.4" y1="105.19" x2="174.32" y2="104.71"/>
	</g>
	<g>
		<line class="st2" x1="174.4" y1="101.25" x2="170.31" y2="100.77"/>
	</g>
	<g>
		<line class="st2" x1="174.26" y1="101.93" x2="170.18" y2="101.45"/>
	</g>
	<g>
		<line class="st2" x1="174.13" y1="102.61" x2="170.04" y2="102.13"/>
	</g>
	<g>
		<line class="st2" x1="174" y1="103.28" x2="169.91" y2="102.8"/>
	</g>
	<g>
		<line class="st2" x1="173.86" y1="103.96" x2="169.78" y2="103.48"/>
	</g>
	<g>
		<line class="st2" x1="173.73" y1="104.64" x2="169.65" y2="104.16"/>
	</g>
	<g>
		<line class="st2" x1="178" y1="107.22" x2="173.92" y2="106.74"/>
	</g>
	<g>
		<line class="st2" x1="178.14" y1="106.54" x2="174.05" y2="106.06"/>
	</g>
	<g>
		<line class="st2" x1="178.27" y1="105.86" x2="174.18" y2="105.39"/>
	</g>
	<g>
		<line class="st2" x1="173.33" y1="106.67" x2="169.25" y2="106.19"/>
	</g>
	<g>
		<line class="st2" x1="173.47" y1="105.99" x2="169.38" y2="105.51"/>
	</g>
	<g>
		<line class="st2" x1="173.6" y1="105.32" x2="169.51" y2="104.84"/>
	</g>
	<g>
		<line class="st2" x1="177.87" y1="107.9" x2="173.78" y2="107.42"/>
	</g>
	<g>
		<line class="st2" x1="177.74" y1="108.58" x2="173.65" y2="108.09"/>
	</g>
	<g>
		<line class="st2" x1="177.6" y1="109.25" x2="173.52" y2="108.77"/>
	</g>
	<g>
		<line class="st2" x1="173.2" y1="107.35" x2="169.11" y2="106.87"/>
	</g>
	<g>
		<line class="st2" x1="173.07" y1="108.03" x2="168.98" y2="107.55"/>
	</g>
	<g>
		<line class="st2" x1="172.93" y1="108.7" x2="168.85" y2="108.22"/>
	</g>
	<g>
		<line class="st2" x1="176.98" y1="112.41" x2="172.9" y2="111.93"/>
	</g>
	<g>
		<line class="st2" x1="172.31" y1="111.87" x2="168.23" y2="111.39"/>
	</g>
</g>
<g>
	<g>
		<polyline class="st2" points="172.34,81.47 173.1,77.63 169.01,77.15 		"/>
	</g>
	<g>
		<line class="st2" x1="169.01" y1="77.15" x2="168.26" y2="80.99"/>
	</g>
	<g>
		<polygon class="st2" points="162.45,110.57 162.31,111.25 166.4,111.73 166.53,111.05 166.68,111.07 173.24,77.65 173.1,77.63 
			173.23,76.95 169.14,76.47 169.01,77.15 168.86,77.13 162.3,110.55 		"/>
	</g>
	<g>
		<line class="st2" x1="172.34" y1="81.47" x2="168.26" y2="80.99"/>
	</g>
	<g>
		<line class="st2" x1="172.47" y1="80.79" x2="168.39" y2="80.31"/>
	</g>
	<g>
		<line class="st2" x1="172.21" y1="82.15" x2="168.12" y2="81.66"/>
	</g>
	<g>
		<line class="st2" x1="172.08" y1="82.82" x2="167.99" y2="82.34"/>
	</g>
	<g>
		<line class="st2" x1="171.94" y1="83.5" x2="167.86" y2="83.02"/>
	</g>
	<g>
		<line class="st2" x1="171.81" y1="84.18" x2="167.72" y2="83.7"/>
	</g>
	<g>
		<line class="st2" x1="171.68" y1="84.86" x2="167.59" y2="84.38"/>
	</g>
	<g>
		<line class="st2" x1="171.54" y1="85.53" x2="167.46" y2="85.05"/>
	</g>
	<g>
		<polyline class="st2" points="167.67,80.92 168.43,77.08 164.34,76.6 		"/>
	</g>
	<g>
		<line class="st2" x1="164.34" y1="76.6" x2="163.58" y2="80.44"/>
	</g>
	<g>
		<line class="st2" x1="167.67" y1="80.92" x2="163.58" y2="80.44"/>
	</g>
	<g>
		<line class="st2" x1="167.8" y1="80.24" x2="163.72" y2="79.76"/>
	</g>
	<g>
		<line class="st2" x1="167.54" y1="81.6" x2="163.45" y2="81.12"/>
	</g>
	<g>
		<line class="st2" x1="167.41" y1="82.27" x2="163.32" y2="81.79"/>
	</g>
	<g>
		<line class="st2" x1="167.27" y1="82.95" x2="163.19" y2="82.47"/>
	</g>
	<g>
		<line class="st2" x1="167.14" y1="83.63" x2="163.05" y2="83.15"/>
	</g>
	<g>
		<line class="st2" x1="167.01" y1="84.31" x2="162.92" y2="83.83"/>
	</g>
	<g>
		<line class="st2" x1="166.87" y1="84.98" x2="162.79" y2="84.5"/>
	</g>
	<g>
		<polyline class="st2" points="167.15,107.92 166.53,111.05 162.45,110.57 		"/>
	</g>
	<g>
		<line class="st2" x1="162.45" y1="110.57" x2="163.06" y2="107.44"/>
	</g>
	<g>
		<line class="st2" x1="171.14" y1="87.57" x2="167.06" y2="87.09"/>
	</g>
	<g>
		<line class="st2" x1="171.28" y1="86.89" x2="167.19" y2="86.41"/>
	</g>
	<g>
		<line class="st2" x1="171.41" y1="86.21" x2="167.32" y2="85.73"/>
	</g>
	<g>
		<polyline class="st2" points="162.48,107.37 161.86,110.5 157.78,110.02 		"/>
	</g>
	<g>
		<line class="st2" x1="157.78" y1="110.02" x2="158.39" y2="106.89"/>
	</g>
	<g>
		<polygon class="st2" points="164.34,76.6 164.47,75.92 168.56,76.4 168.43,77.08 168.57,77.1 162.01,110.52 161.86,110.5 
			161.73,111.18 157.64,110.7 157.78,110.02 157.63,110 164.19,76.58 		"/>
	</g>
	<g>
		<line class="st2" x1="166.47" y1="87.02" x2="162.39" y2="86.54"/>
	</g>
	<g>
		<line class="st2" x1="166.61" y1="86.34" x2="162.52" y2="85.86"/>
	</g>
	<g>
		<line class="st2" x1="166.74" y1="85.66" x2="162.65" y2="85.18"/>
	</g>
	<g>
		<line class="st2" x1="172.34" y1="81.47" x2="167.15" y2="107.92"/>
	</g>
	<g>
		<line class="st2" x1="163.58" y1="80.44" x2="158.39" y2="106.89"/>
	</g>
	<g>
		<line class="st2" x1="168.26" y1="80.99" x2="163.06" y2="107.44"/>
	</g>
	<g>
		<line class="st2" x1="167.67" y1="80.92" x2="162.48" y2="107.37"/>
	</g>
	<g>
		<line class="st2" x1="171.01" y1="88.24" x2="166.92" y2="87.76"/>
	</g>
	<g>
		<line class="st2" x1="170.88" y1="88.92" x2="166.79" y2="88.44"/>
	</g>
	<g>
		<line class="st2" x1="170.74" y1="89.6" x2="166.66" y2="89.12"/>
	</g>
	<g>
		<line class="st2" x1="170.61" y1="90.28" x2="166.53" y2="89.79"/>
	</g>
	<g>
		<line class="st2" x1="170.48" y1="90.95" x2="166.39" y2="90.47"/>
	</g>
	<g>
		<line class="st2" x1="170.35" y1="91.63" x2="166.26" y2="91.15"/>
	</g>
	<g>
		<line class="st2" x1="166.34" y1="87.69" x2="162.25" y2="87.21"/>
	</g>
	<g>
		<line class="st2" x1="166.21" y1="88.37" x2="162.12" y2="87.89"/>
	</g>
	<g>
		<line class="st2" x1="166.07" y1="89.05" x2="161.99" y2="88.57"/>
	</g>
	<g>
		<line class="st2" x1="165.94" y1="89.73" x2="161.86" y2="89.25"/>
	</g>
	<g>
		<line class="st2" x1="165.81" y1="90.4" x2="161.72" y2="89.92"/>
	</g>
	<g>
		<line class="st2" x1="165.68" y1="91.08" x2="161.59" y2="90.6"/>
	</g>
	<g>
		<line class="st2" x1="169.95" y1="93.66" x2="165.86" y2="93.18"/>
	</g>
	<g>
		<line class="st2" x1="170.08" y1="92.99" x2="165.99" y2="92.5"/>
	</g>
	<g>
		<line class="st2" x1="170.21" y1="92.31" x2="166.13" y2="91.83"/>
	</g>
	<g>
		<line class="st2" x1="165.28" y1="93.11" x2="161.19" y2="92.63"/>
	</g>
	<g>
		<line class="st2" x1="165.41" y1="92.44" x2="161.32" y2="91.96"/>
	</g>
	<g>
		<line class="st2" x1="165.54" y1="91.76" x2="161.46" y2="91.28"/>
	</g>
	<g>
		<line class="st2" x1="169.81" y1="94.34" x2="165.73" y2="93.86"/>
	</g>
	<g>
		<line class="st2" x1="169.68" y1="95.02" x2="165.59" y2="94.54"/>
	</g>
	<g>
		<line class="st2" x1="169.55" y1="95.7" x2="165.46" y2="95.22"/>
	</g>
	<g>
		<line class="st2" x1="169.41" y1="96.37" x2="165.33" y2="95.89"/>
	</g>
	<g>
		<line class="st2" x1="169.28" y1="97.05" x2="165.19" y2="96.57"/>
	</g>
	<g>
		<line class="st2" x1="169.15" y1="97.73" x2="165.06" y2="97.25"/>
	</g>
	<g>
		<line class="st2" x1="165.14" y1="93.79" x2="161.06" y2="93.31"/>
	</g>
	<g>
		<line class="st2" x1="165.01" y1="94.47" x2="160.92" y2="93.99"/>
	</g>
	<g>
		<line class="st2" x1="164.88" y1="95.15" x2="160.79" y2="94.67"/>
	</g>
	<g>
		<line class="st2" x1="164.74" y1="95.82" x2="160.66" y2="95.34"/>
	</g>
	<g>
		<line class="st2" x1="164.61" y1="96.5" x2="160.52" y2="96.02"/>
	</g>
	<g>
		<line class="st2" x1="164.48" y1="97.18" x2="160.39" y2="96.7"/>
	</g>
	<g>
		<line class="st2" x1="168.75" y1="99.76" x2="164.66" y2="99.28"/>
	</g>
	<g>
		<line class="st2" x1="168.88" y1="99.08" x2="164.8" y2="98.6"/>
	</g>
	<g>
		<line class="st2" x1="169.02" y1="98.4" x2="164.93" y2="97.92"/>
	</g>
	<g>
		<line class="st2" x1="164.08" y1="99.21" x2="159.99" y2="98.73"/>
	</g>
	<g>
		<line class="st2" x1="164.21" y1="98.53" x2="160.13" y2="98.05"/>
	</g>
	<g>
		<line class="st2" x1="164.34" y1="97.86" x2="160.26" y2="97.38"/>
	</g>
	<g>
		<line class="st2" x1="168.62" y1="100.44" x2="164.53" y2="99.96"/>
	</g>
	<g>
		<line class="st2" x1="168.48" y1="101.11" x2="164.4" y2="100.63"/>
	</g>
	<g>
		<line class="st2" x1="168.35" y1="101.79" x2="164.26" y2="101.31"/>
	</g>
	<g>
		<line class="st2" x1="168.22" y1="102.47" x2="164.13" y2="101.99"/>
	</g>
	<g>
		<line class="st2" x1="168.08" y1="103.15" x2="164" y2="102.67"/>
	</g>
	<g>
		<line class="st2" x1="167.95" y1="103.82" x2="163.86" y2="103.35"/>
	</g>
	<g>
		<line class="st2" x1="163.95" y1="99.89" x2="159.86" y2="99.41"/>
	</g>
	<g>
		<line class="st2" x1="163.81" y1="100.57" x2="159.73" y2="100.09"/>
	</g>
	<g>
		<line class="st2" x1="163.68" y1="101.24" x2="159.59" y2="100.76"/>
	</g>
	<g>
		<line class="st2" x1="163.55" y1="101.92" x2="159.46" y2="101.44"/>
	</g>
	<g>
		<line class="st2" x1="163.41" y1="102.6" x2="159.33" y2="102.12"/>
	</g>
	<g>
		<line class="st2" x1="163.28" y1="103.28" x2="159.19" y2="102.8"/>
	</g>
	<g>
		<line class="st2" x1="167.55" y1="105.86" x2="163.47" y2="105.38"/>
	</g>
	<g>
		<line class="st2" x1="167.68" y1="105.18" x2="163.6" y2="104.7"/>
	</g>
	<g>
		<line class="st2" x1="167.82" y1="104.5" x2="163.73" y2="104.02"/>
	</g>
	<g>
		<line class="st2" x1="162.88" y1="105.31" x2="158.79" y2="104.83"/>
	</g>
	<g>
		<line class="st2" x1="163.01" y1="104.63" x2="158.93" y2="104.15"/>
	</g>
	<g>
		<line class="st2" x1="163.15" y1="103.95" x2="159.06" y2="103.47"/>
	</g>
	<g>
		<line class="st2" x1="167.42" y1="106.53" x2="163.33" y2="106.05"/>
	</g>
	<g>
		<line class="st2" x1="167.29" y1="107.21" x2="163.2" y2="106.73"/>
	</g>
	<g>
		<line class="st2" x1="167.15" y1="107.89" x2="163.07" y2="107.41"/>
	</g>
	<g>
		<line class="st2" x1="162.75" y1="105.99" x2="158.66" y2="105.51"/>
	</g>
	<g>
		<line class="st2" x1="162.62" y1="106.66" x2="158.53" y2="106.18"/>
	</g>
	<g>
		<line class="st2" x1="162.48" y1="107.34" x2="158.4" y2="106.86"/>
	</g>
	<g>
		<line class="st2" x1="166.53" y1="111.05" x2="162.45" y2="110.57"/>
	</g>
	<g>
		<line class="st2" x1="161.86" y1="110.5" x2="157.78" y2="110.02"/>
	</g>
</g>
<polygon class="st3" points="368.18,180.81 389.08,193.54 389.08,206.71 356.82,206.71 356.82,199.9 "/>
<line class="st4" x1="434.3" y1="206.94" x2="451.44" y2="206.71"/>
<polyline class="st1" points="452.36,221.48 436.57,221.48 399.31,221.48 399.31,234.66 387.95,234.66 387.95,239.2 392.49,239.2 
	392.49,271.47 438.84,271.47 437.48,249.2 434.3,249.2 434.3,239.66 437.48,239.66 435.66,221.94 "/>
<path class="st5" d="M192.33,164c18.33,0,36.66,0,54.98,0c0,12.42,0,24.84,0,37.26c-16.06,0-32.11,0-48.17,0
	c-2.27-2.42-4.54-4.85-6.82-7.27C192.33,183.99,192.33,174,192.33,164z"/>
<polygon class="st6" points="154.38,118.79 183.47,118.79 183.47,195.58 192.55,204.21 192.55,222.39 154.38,222.39 "/>
<path class="st6" d="M230.27,93.34c6.82,4.39,13.63,8.79,20.45,13.18l-7.72,11.81c-6.82-4.39-13.63-8.79-20.45-13.18
	C225.12,101.22,227.69,97.28,230.27,93.34z"/>
<path class="st6" d="M258.9,110.61c6.82,4.39,13.63,8.79,20.45,13.18l-7.72,11.81c-6.82-4.39-13.63-8.79-20.45-13.18
	C253.75,118.48,256.32,114.54,258.9,110.61z"/>
<path class="st6" d="M333.87,157.41c6.82,4.39,13.63,8.79,20.45,13.18l-7.72,11.81c-6.82-4.39-13.63-8.79-20.45-13.18
	C328.72,165.29,331.3,161.35,333.87,157.41z"/>
<path class="st6" d="M290.71,131.05c6.82,4.39,10,6.97,16.81,11.36l-7.72,11.81c-6.82-4.39-10-6.97-16.81-11.36
	C285.56,138.93,288.13,134.99,290.71,131.05z"/>
<rect x="272.07" y="217.39" class="st6" width="34.99" height="23.17"/>
<rect x="215.73" y="221.03" class="st6" width="37.26" height="25.9"/>
<line class="st7" x1="107.21" y1="219.58" x2="133.03" y2="219.66"/>
<path class="st1" d="M130.07,267.38h19.02v-3.66c9.41-0.07,18.82-0.13,28.24-0.2c0-3.03,0-6.06,0-9.09
	c6.89,0.05,13.78,0.09,20.68,0.14v-20.59h-64.76c-1.04,0-2.09,0-3.13,0C130.1,245.11,130.09,256.24,130.07,267.38z"/>
<g>
	<g>
		<text transform="matrix(1 0 0 1 110.0166 229.4531)" class="st8 st9">M</text>
	</g>
	<g>
		<text transform="matrix(1 0 0 1 115.1309 229.4531)" class="st8 st9">R</text>
	</g>
	<g>
		<text transform="matrix(1 0 0 1 118.6113 229.4531)" class="st8 st9">T</text>
	</g>
</g>
<g>
	<g>
		<text transform="matrix(1 0 0 1 430.9531 216.2754)" class="st8 st9">J</text>
	</g>
	<g>
		<text transform="matrix(1 0 0 1 433.3066 216.2754)" class="st8 st9">-</text>
	</g>
	<g>
		<text transform="matrix(1 0 0 1 435.1895 216.2754)" class="st8 st9">W</text>
	</g>
	<g>
		<text transform="matrix(1 0 0 1 440.3613 216.2754)" class="st8 st9">alk</text>
	</g>
</g>
<line class="st10" x1="251.85" y1="272.6" x2="251.85" y2="284.87"/>
<line class="st4" x1="268.67" y1="272.6" x2="268.67" y2="284.64"/>
<polygon class="st5" points="194.37,106.52 219.36,110.61 260.71,137.42 248.9,157.41 215.27,157.41 215.27,159.68 192.55,159.68 
	192.55,116.51 "/>
<polygon class="st5" points="264.12,139.92 251.85,160.36 251.85,201.26 320.01,201.26 320.01,206.71 352.28,206.71 352.28,194.9 
	"/>
<g>
	<g>
		<text transform="matrix(1 0 0 1 365.8838 195.8281)" class="st8 st9">E</text>
	</g>
	<g>
		<text transform="matrix(1 0 0 1 368.9697 195.8281)" class="st8 st9">v</text>
	</g>
	<g>
		<text transform="matrix(1 0 0 1 371.9658 195.8281)" class="st8 st9">e</text>
	</g>
	<g>
		<text transform="matrix(1 0 0 1 375.1533 195.8281)" class="st8 st9">n</text>
	</g>
	<g>
		<text transform="matrix(1 0 0 1 378.6582 195.8281)" class="st8 st9">t </text>
	</g>
	<g>
		<text transform="matrix(1 0 0 1 366.0879 203.4619)" class="st8 st9">Spa</text>
	</g>
	<g>
		<text transform="matrix(1 0 0 1 375.9102 203.4619)" class="st8 st9">c</text>
	</g>
	<g>
		<text transform="matrix(1 0 0 1 378.7217 203.4619)" class="st8 st9">e</text>
	</g>
</g>
<path class="st7" d="M130.3,234.26c-7.65-0.04-15.3-0.08-22.95-0.11"/>
<line class="st4" x1="435.43" y1="221.39" x2="451.44" y2="221.26"/>
<g>
	<path d="M347.27,63.05c0,1.9-1.15,2.9-2.56,2.9c-1.46,0-2.48-1.13-2.48-2.8c0-1.75,1.09-2.9,2.56-2.9
		C346.3,60.26,347.27,61.42,347.27,63.05z M342.99,63.14c0,1.18,0.64,2.23,1.76,2.23c1.13,0,1.77-1.04,1.77-2.29
		c0-1.1-0.57-2.24-1.76-2.24C343.58,60.84,342.99,61.93,342.99,63.14z"/>
	<path d="M353.26,60.76c-0.18-0.11-0.47-0.21-0.8-0.21c-0.76,0-0.99,0.53-0.99,1.16v0.2h2.31v3.96h-0.72v-3.41h-1.58v3.41h-0.72
		v-3.41h-1.67v3.41h-0.71v-3.41h-0.56v-0.55h0.56v-0.15c0-0.5,0.13-0.98,0.47-1.32c0.23-0.24,0.57-0.38,1.01-0.38
		c0.27,0,0.55,0.1,0.7,0.17l-0.2,0.53c-0.12-0.07-0.31-0.14-0.5-0.14c-0.23,0-0.39,0.08-0.52,0.21c-0.2,0.21-0.26,0.57-0.26,0.92
		v0.16h1.67v-0.21c0-1.05,0.62-1.73,1.73-1.73c0.36,0,0.77,0.11,0.98,0.25L353.26,60.76z"/>
	<path d="M357.79,65.72c-0.19,0.1-0.61,0.23-1.14,0.23c-1.19,0-1.97-0.81-1.97-2.02c0-1.22,0.83-2.1,2.13-2.1c0.43,0,0.8,0.11,1,0.2
		l-0.16,0.56c-0.17-0.1-0.44-0.19-0.83-0.19c-0.91,0-1.4,0.67-1.4,1.5c0,0.92,0.59,1.48,1.37,1.48c0.41,0,0.68-0.11,0.88-0.2
		L357.79,65.72z"/>
	<path d="M358.98,64.02c0.02,0.97,0.64,1.37,1.36,1.37c0.52,0,0.83-0.09,1.1-0.2l0.12,0.52c-0.25,0.11-0.69,0.25-1.32,0.25
		c-1.22,0-1.95-0.8-1.95-2c0-1.19,0.7-2.14,1.86-2.14c1.29,0,1.64,1.14,1.64,1.87c0,0.15-0.02,0.26-0.02,0.34H358.98z M361.09,63.5
		c0.01-0.46-0.19-1.17-1-1.17c-0.73,0-1.05,0.67-1.1,1.17H361.09z"/>
	<path d="M364.44,60.35h0.71v4.92h2.36v0.6h-3.07V60.35z"/>
	<path d="M371.74,63.85c0,1.46-1.01,2.1-1.97,2.1c-1.07,0-1.9-0.79-1.9-2.04c0-1.33,0.87-2.1,1.96-2.1
		C370.97,61.82,371.74,62.64,371.74,63.85z M368.6,63.9c0,0.87,0.5,1.52,1.2,1.52c0.69,0,1.2-0.65,1.2-1.54
		c0-0.67-0.34-1.52-1.19-1.52C368.97,62.36,368.6,63.14,368.6,63.9z"/>
	<path d="M372.62,65.87c0.02-0.27,0.03-0.67,0.03-1.02v-4.79h0.71v2.49h0.02c0.25-0.44,0.71-0.73,1.35-0.73
		c0.98,0,1.68,0.82,1.67,2.02c0,1.42-0.89,2.12-1.78,2.12c-0.57,0-1.03-0.22-1.33-0.74h-0.02l-0.03,0.65H372.62z M373.36,64.28
		c0,0.09,0.02,0.18,0.03,0.26c0.14,0.5,0.56,0.84,1.08,0.84c0.75,0,1.2-0.61,1.2-1.52c0-0.79-0.41-1.47-1.18-1.47
		c-0.49,0-0.95,0.34-1.1,0.88c-0.02,0.08-0.04,0.18-0.04,0.29V64.28z"/>
	<path d="M377.27,65.87c0.02-0.27,0.03-0.67,0.03-1.02v-4.79h0.71v2.49h0.02c0.25-0.44,0.71-0.73,1.35-0.73
		c0.98,0,1.68,0.82,1.67,2.02c0,1.42-0.89,2.12-1.78,2.12c-0.57,0-1.03-0.22-1.33-0.74h-0.02l-0.03,0.65H377.27z M378.02,64.28
		c0,0.09,0.02,0.18,0.03,0.26c0.14,0.5,0.56,0.84,1.08,0.84c0.75,0,1.2-0.61,1.2-1.52c0-0.79-0.41-1.47-1.18-1.47
		c-0.49,0-0.95,0.34-1.1,0.88c-0.02,0.08-0.04,0.18-0.04,0.29V64.28z"/>
	<path d="M382.16,61.91l0.87,2.34c0.09,0.26,0.19,0.57,0.25,0.81h0.02c0.07-0.24,0.16-0.54,0.25-0.83l0.79-2.32h0.76l-1.08,2.82
		c-0.52,1.36-0.87,2.05-1.36,2.48c-0.35,0.31-0.7,0.43-0.88,0.47l-0.18-0.61c0.18-0.06,0.42-0.17,0.63-0.35
		c0.2-0.16,0.44-0.43,0.61-0.8c0.03-0.07,0.06-0.13,0.06-0.17c0-0.04-0.02-0.1-0.05-0.19l-1.46-3.65H382.16z"/>
</g>
<g>
	<g>
		<text transform="matrix(1 0 0 1 255.5518 280.3477)" class="st8 st9">JEM</text>
	</g>
</g>
<g>
	<g>
		<text transform="matrix(1 0 0 1 243.5625 69.9565)" class="st8 st9">S</text>
	</g>
	<g>
		<text transform="matrix(1 0 0 1 246.6797 69.9565)" class="st8 st9">t</text>
	</g>
	<g>
		<text transform="matrix(1 0 0 1 248.7471 69.9565)" class="st8 st9">o</text>
	</g>
	<g>
		<text transform="matrix(1 0 0 1 252.2402 69.9565)" class="st8 st9">r</text>
	</g>
	<g>
		<text transform="matrix(1 0 0 1 254.2568 69.9565)" class="st8 st9">es</text>
	</g>
</g>
<g>
	<g>
		<polyline class="st2" points="218.72,224.61 214.05,224.61 214.05,227.45 		"/>
	</g>
	<g>
		<line class="st2" x1="214.05" y1="227.45" x2="218.72" y2="227.45"/>
	</g>
	<g>
		<polygon class="st2" points="254.67,227.45 255.49,227.45 255.49,224.61 254.67,224.61 254.67,224.51 214.05,224.51 
			214.05,224.61 213.23,224.61 213.23,227.45 214.05,227.45 214.05,227.55 254.67,227.55 		"/>
	</g>
	<g>
		<line class="st2" x1="218.72" y1="224.61" x2="218.72" y2="227.45"/>
	</g>
	<g>
		<line class="st2" x1="217.89" y1="224.61" x2="217.89" y2="227.45"/>
	</g>
	<g>
		<line class="st2" x1="219.54" y1="224.61" x2="219.54" y2="227.45"/>
	</g>
	<g>
		<line class="st2" x1="220.36" y1="224.61" x2="220.36" y2="227.45"/>
	</g>
	<g>
		<line class="st2" x1="221.19" y1="224.61" x2="221.19" y2="227.45"/>
	</g>
	<g>
		<line class="st2" x1="222.01" y1="224.61" x2="222.01" y2="227.45"/>
	</g>
	<g>
		<line class="st2" x1="222.83" y1="224.61" x2="222.83" y2="227.45"/>
	</g>
	<g>
		<line class="st2" x1="223.66" y1="224.61" x2="223.66" y2="227.45"/>
	</g>
	<g>
		<polyline class="st2" points="218.72,227.86 214.05,227.86 214.05,230.7 		"/>
	</g>
	<g>
		<line class="st2" x1="214.05" y1="230.7" x2="218.72" y2="230.7"/>
	</g>
	<g>
		<line class="st2" x1="218.72" y1="227.86" x2="218.72" y2="230.7"/>
	</g>
	<g>
		<line class="st2" x1="217.89" y1="227.86" x2="217.89" y2="230.7"/>
	</g>
	<g>
		<line class="st2" x1="219.54" y1="227.86" x2="219.54" y2="230.7"/>
	</g>
	<g>
		<line class="st2" x1="220.36" y1="227.86" x2="220.36" y2="230.7"/>
	</g>
	<g>
		<line class="st2" x1="221.19" y1="227.86" x2="221.19" y2="230.7"/>
	</g>
	<g>
		<line class="st2" x1="222.01" y1="227.86" x2="222.01" y2="230.7"/>
	</g>
	<g>
		<line class="st2" x1="222.83" y1="227.86" x2="222.83" y2="230.7"/>
	</g>
	<g>
		<line class="st2" x1="223.66" y1="227.86" x2="223.66" y2="230.7"/>
	</g>
	<g>
		<polyline class="st2" points="250.86,224.61 254.67,224.61 254.67,227.45 		"/>
	</g>
	<g>
		<line class="st2" x1="254.67" y1="227.45" x2="250.86" y2="227.45"/>
	</g>
	<g>
		<line class="st2" x1="226.13" y1="224.61" x2="226.13" y2="227.45"/>
	</g>
	<g>
		<line class="st2" x1="225.3" y1="224.61" x2="225.3" y2="227.45"/>
	</g>
	<g>
		<line class="st2" x1="224.48" y1="224.61" x2="224.48" y2="227.45"/>
	</g>
	<g>
		<polyline class="st2" points="250.86,227.86 254.67,227.86 254.67,230.7 		"/>
	</g>
	<g>
		<line class="st2" x1="254.67" y1="230.7" x2="250.86" y2="230.7"/>
	</g>
	<g>
		<polygon class="st2" points="214.05,230.7 213.23,230.7 213.23,227.86 214.05,227.86 214.05,227.75 254.67,227.75 254.67,227.86 
			255.49,227.86 255.49,230.7 254.67,230.7 254.67,230.8 214.05,230.8 		"/>
	</g>
	<g>
		<line class="st2" x1="226.13" y1="227.86" x2="226.13" y2="230.7"/>
	</g>
	<g>
		<line class="st2" x1="225.3" y1="227.86" x2="225.3" y2="230.7"/>
	</g>
	<g>
		<line class="st2" x1="224.48" y1="227.86" x2="224.48" y2="230.7"/>
	</g>
	<g>
		<line class="st2" x1="218.72" y1="224.61" x2="250.86" y2="224.61"/>
	</g>
	<g>
		<line class="st2" x1="218.72" y1="230.7" x2="250.86" y2="230.7"/>
	</g>
	<g>
		<line class="st2" x1="218.72" y1="227.45" x2="250.86" y2="227.45"/>
	</g>
	<g>
		<line class="st2" x1="218.72" y1="227.86" x2="250.86" y2="227.86"/>
	</g>
	<g>
		<line class="st2" x1="226.95" y1="224.61" x2="226.95" y2="227.45"/>
	</g>
	<g>
		<line class="st2" x1="227.77" y1="224.61" x2="227.77" y2="227.45"/>
	</g>
	<g>
		<line class="st2" x1="228.6" y1="224.61" x2="228.6" y2="227.45"/>
	</g>
	<g>
		<line class="st2" x1="229.42" y1="224.61" x2="229.42" y2="227.45"/>
	</g>
	<g>
		<line class="st2" x1="230.24" y1="224.61" x2="230.24" y2="227.45"/>
	</g>
	<g>
		<line class="st2" x1="231.07" y1="224.61" x2="231.07" y2="227.45"/>
	</g>
	<g>
		<line class="st2" x1="226.95" y1="227.86" x2="226.95" y2="230.7"/>
	</g>
	<g>
		<line class="st2" x1="227.77" y1="227.86" x2="227.77" y2="230.7"/>
	</g>
	<g>
		<line class="st2" x1="228.6" y1="227.86" x2="228.6" y2="230.7"/>
	</g>
	<g>
		<line class="st2" x1="229.42" y1="227.86" x2="229.42" y2="230.7"/>
	</g>
	<g>
		<line class="st2" x1="230.24" y1="227.86" x2="230.24" y2="230.7"/>
	</g>
	<g>
		<line class="st2" x1="231.07" y1="227.86" x2="231.07" y2="230.7"/>
	</g>
	<g>
		<line class="st2" x1="233.54" y1="224.61" x2="233.54" y2="227.45"/>
	</g>
	<g>
		<line class="st2" x1="232.71" y1="224.61" x2="232.71" y2="227.45"/>
	</g>
	<g>
		<line class="st2" x1="231.89" y1="224.61" x2="231.89" y2="227.45"/>
	</g>
	<g>
		<line class="st2" x1="233.54" y1="227.86" x2="233.54" y2="230.7"/>
	</g>
	<g>
		<line class="st2" x1="232.71" y1="227.86" x2="232.71" y2="230.7"/>
	</g>
	<g>
		<line class="st2" x1="231.89" y1="227.86" x2="231.89" y2="230.7"/>
	</g>
	<g>
		<line class="st2" x1="234.36" y1="224.61" x2="234.36" y2="227.45"/>
	</g>
	<g>
		<line class="st2" x1="235.18" y1="224.61" x2="235.18" y2="227.45"/>
	</g>
	<g>
		<line class="st2" x1="236" y1="224.61" x2="236" y2="227.45"/>
	</g>
	<g>
		<line class="st2" x1="236.83" y1="224.61" x2="236.83" y2="227.45"/>
	</g>
	<g>
		<line class="st2" x1="237.65" y1="224.61" x2="237.65" y2="227.45"/>
	</g>
	<g>
		<line class="st2" x1="238.48" y1="224.61" x2="238.48" y2="227.45"/>
	</g>
	<g>
		<line class="st2" x1="234.36" y1="227.86" x2="234.36" y2="230.7"/>
	</g>
	<g>
		<line class="st2" x1="235.18" y1="227.86" x2="235.18" y2="230.7"/>
	</g>
	<g>
		<line class="st2" x1="236" y1="227.86" x2="236" y2="230.7"/>
	</g>
	<g>
		<line class="st2" x1="236.83" y1="227.86" x2="236.83" y2="230.7"/>
	</g>
	<g>
		<line class="st2" x1="237.65" y1="227.86" x2="237.65" y2="230.7"/>
	</g>
	<g>
		<line class="st2" x1="238.48" y1="227.86" x2="238.48" y2="230.7"/>
	</g>
	<g>
		<line class="st2" x1="240.94" y1="224.61" x2="240.94" y2="227.45"/>
	</g>
	<g>
		<line class="st2" x1="240.12" y1="224.61" x2="240.12" y2="227.45"/>
	</g>
	<g>
		<line class="st2" x1="239.3" y1="224.61" x2="239.3" y2="227.45"/>
	</g>
	<g>
		<line class="st2" x1="240.94" y1="227.86" x2="240.94" y2="230.7"/>
	</g>
	<g>
		<line class="st2" x1="240.12" y1="227.86" x2="240.12" y2="230.7"/>
	</g>
	<g>
		<line class="st2" x1="239.3" y1="227.86" x2="239.3" y2="230.7"/>
	</g>
	<g>
		<line class="st2" x1="241.77" y1="224.61" x2="241.77" y2="227.45"/>
	</g>
	<g>
		<line class="st2" x1="242.59" y1="224.61" x2="242.59" y2="227.45"/>
	</g>
	<g>
		<line class="st2" x1="243.41" y1="224.61" x2="243.41" y2="227.45"/>
	</g>
	<g>
		<line class="st2" x1="244.24" y1="224.61" x2="244.24" y2="227.45"/>
	</g>
	<g>
		<line class="st2" x1="245.06" y1="224.61" x2="245.06" y2="227.45"/>
	</g>
	<g>
		<line class="st2" x1="245.88" y1="224.61" x2="245.88" y2="227.45"/>
	</g>
	<g>
		<line class="st2" x1="241.77" y1="227.86" x2="241.77" y2="230.7"/>
	</g>
	<g>
		<line class="st2" x1="242.59" y1="227.86" x2="242.59" y2="230.7"/>
	</g>
	<g>
		<line class="st2" x1="243.41" y1="227.86" x2="243.41" y2="230.7"/>
	</g>
	<g>
		<line class="st2" x1="244.24" y1="227.86" x2="244.24" y2="230.7"/>
	</g>
	<g>
		<line class="st2" x1="245.06" y1="227.86" x2="245.06" y2="230.7"/>
	</g>
	<g>
		<line class="st2" x1="245.88" y1="227.86" x2="245.88" y2="230.7"/>
	</g>
	<g>
		<line class="st2" x1="248.35" y1="224.61" x2="248.35" y2="227.45"/>
	</g>
	<g>
		<line class="st2" x1="247.53" y1="224.61" x2="247.53" y2="227.45"/>
	</g>
	<g>
		<line class="st2" x1="246.71" y1="224.61" x2="246.71" y2="227.45"/>
	</g>
	<g>
		<line class="st2" x1="248.35" y1="227.86" x2="248.35" y2="230.7"/>
	</g>
	<g>
		<line class="st2" x1="247.53" y1="227.86" x2="247.53" y2="230.7"/>
	</g>
	<g>
		<line class="st2" x1="246.71" y1="227.86" x2="246.71" y2="230.7"/>
	</g>
	<g>
		<line class="st2" x1="249.18" y1="224.61" x2="249.18" y2="227.45"/>
	</g>
	<g>
		<line class="st2" x1="250" y1="224.61" x2="250" y2="227.45"/>
	</g>
	<g>
		<line class="st2" x1="250.82" y1="224.61" x2="250.82" y2="227.45"/>
	</g>
	<g>
		<line class="st2" x1="249.18" y1="227.86" x2="249.18" y2="230.7"/>
	</g>
	<g>
		<line class="st2" x1="250" y1="227.86" x2="250" y2="230.7"/>
	</g>
	<g>
		<line class="st2" x1="250.82" y1="227.86" x2="250.82" y2="230.7"/>
	</g>
	<g>
		<line class="st2" x1="254.67" y1="224.61" x2="254.67" y2="227.45"/>
	</g>
	<g>
		<line class="st2" x1="254.67" y1="227.86" x2="254.67" y2="230.7"/>
	</g>
</g>
<g>
	<g>
		<polyline class="st2" points="284.94,131.03 281.9,128.99 280.31,131.34 		"/>
	</g>
	<g>
		<line class="st2" x1="280.31" y1="131.34" x2="283.35" y2="133.39"/>
	</g>
	<g>
		<polygon class="st2" points="306.79,149.17 307.33,149.54 308.92,147.18 308.38,146.82 308.44,146.73 281.96,128.9 281.9,128.99 
			281.36,128.62 279.78,130.98 280.31,131.34 280.26,131.43 306.74,149.26 		"/>
	</g>
	<g>
		<line class="st2" x1="284.94" y1="131.03" x2="283.35" y2="133.39"/>
	</g>
	<g>
		<line class="st2" x1="284.4" y1="130.67" x2="282.82" y2="133.03"/>
	</g>
	<g>
		<line class="st2" x1="285.48" y1="131.4" x2="283.89" y2="133.75"/>
	</g>
	<g>
		<line class="st2" x1="286.01" y1="131.76" x2="284.43" y2="134.11"/>
	</g>
	<g>
		<line class="st2" x1="286.55" y1="132.12" x2="284.96" y2="134.47"/>
	</g>
	<g>
		<line class="st2" x1="287.09" y1="132.48" x2="285.5" y2="134.84"/>
	</g>
	<g>
		<line class="st2" x1="287.62" y1="132.84" x2="286.04" y2="135.2"/>
	</g>
	<g>
		<line class="st2" x1="288.16" y1="133.2" x2="286.57" y2="135.56"/>
	</g>
	<g>
		<polyline class="st2" points="283.13,133.73 280.09,131.68 278.5,134.03 		"/>
	</g>
	<g>
		<line class="st2" x1="278.5" y1="134.03" x2="281.54" y2="136.08"/>
	</g>
	<g>
		<line class="st2" x1="283.13" y1="133.73" x2="281.54" y2="136.08"/>
	</g>
	<g>
		<line class="st2" x1="282.59" y1="133.37" x2="281" y2="135.72"/>
	</g>
	<g>
		<line class="st2" x1="283.66" y1="134.09" x2="282.08" y2="136.44"/>
	</g>
	<g>
		<line class="st2" x1="284.2" y1="134.45" x2="282.61" y2="136.81"/>
	</g>
	<g>
		<line class="st2" x1="284.74" y1="134.81" x2="283.15" y2="137.17"/>
	</g>
	<g>
		<line class="st2" x1="285.27" y1="135.17" x2="283.69" y2="137.53"/>
	</g>
	<g>
		<line class="st2" x1="285.81" y1="135.53" x2="284.22" y2="137.89"/>
	</g>
	<g>
		<line class="st2" x1="286.35" y1="135.9" x2="284.76" y2="138.25"/>
	</g>
	<g>
		<polyline class="st2" points="305.9,145.15 308.38,146.82 306.79,149.17 		"/>
	</g>
	<g>
		<line class="st2" x1="306.79" y1="149.17" x2="304.31" y2="147.5"/>
	</g>
	<g>
		<line class="st2" x1="289.77" y1="134.29" x2="288.19" y2="136.64"/>
	</g>
	<g>
		<line class="st2" x1="289.23" y1="133.93" x2="287.65" y2="136.28"/>
	</g>
	<g>
		<line class="st2" x1="288.7" y1="133.56" x2="287.11" y2="135.92"/>
	</g>
	<g>
		<polyline class="st2" points="304.08,147.84 306.57,149.51 304.98,151.87 		"/>
	</g>
	<g>
		<line class="st2" x1="304.98" y1="151.87" x2="302.5" y2="150.2"/>
	</g>
	<g>
		<polygon class="st2" points="278.5,134.03 277.96,133.67 279.55,131.32 280.09,131.68 280.14,131.59 306.62,149.43 306.57,149.51 
			307.1,149.87 305.52,152.23 304.98,151.87 304.92,151.95 278.44,134.12 		"/>
	</g>
	<g>
		<line class="st2" x1="287.96" y1="136.98" x2="286.37" y2="139.34"/>
	</g>
	<g>
		<line class="st2" x1="287.42" y1="136.62" x2="285.83" y2="138.97"/>
	</g>
	<g>
		<line class="st2" x1="286.88" y1="136.26" x2="285.3" y2="138.61"/>
	</g>
	<g>
		<line class="st2" x1="284.94" y1="131.03" x2="305.9" y2="145.15"/>
	</g>
	<g>
		<line class="st2" x1="281.54" y1="136.08" x2="302.5" y2="150.2"/>
	</g>
	<g>
		<line class="st2" x1="283.35" y1="133.39" x2="304.31" y2="147.5"/>
	</g>
	<g>
		<line class="st2" x1="283.13" y1="133.73" x2="304.08" y2="147.84"/>
	</g>
	<g>
		<line class="st2" x1="290.31" y1="134.65" x2="288.72" y2="137"/>
	</g>
	<g>
		<line class="st2" x1="290.85" y1="135.01" x2="289.26" y2="137.37"/>
	</g>
	<g>
		<line class="st2" x1="291.38" y1="135.37" x2="289.8" y2="137.73"/>
	</g>
	<g>
		<line class="st2" x1="291.92" y1="135.73" x2="290.33" y2="138.09"/>
	</g>
	<g>
		<line class="st2" x1="292.46" y1="136.09" x2="290.87" y2="138.45"/>
	</g>
	<g>
		<line class="st2" x1="292.99" y1="136.46" x2="291.41" y2="138.81"/>
	</g>
	<g>
		<line class="st2" x1="288.5" y1="137.34" x2="286.91" y2="139.7"/>
	</g>
	<g>
		<line class="st2" x1="289.03" y1="137.7" x2="287.45" y2="140.06"/>
	</g>
	<g>
		<line class="st2" x1="289.57" y1="138.06" x2="287.98" y2="140.42"/>
	</g>
	<g>
		<line class="st2" x1="290.11" y1="138.43" x2="288.52" y2="140.78"/>
	</g>
	<g>
		<line class="st2" x1="290.64" y1="138.79" x2="289.06" y2="141.14"/>
	</g>
	<g>
		<line class="st2" x1="291.18" y1="139.15" x2="289.59" y2="141.5"/>
	</g>
	<g>
		<line class="st2" x1="294.6" y1="137.54" x2="293.02" y2="139.9"/>
	</g>
	<g>
		<line class="st2" x1="294.07" y1="137.18" x2="292.48" y2="139.53"/>
	</g>
	<g>
		<line class="st2" x1="293.53" y1="136.82" x2="291.94" y2="139.17"/>
	</g>
	<g>
		<line class="st2" x1="292.79" y1="140.23" x2="291.2" y2="142.59"/>
	</g>
	<g>
		<line class="st2" x1="292.25" y1="139.87" x2="290.67" y2="142.23"/>
	</g>
	<g>
		<line class="st2" x1="291.72" y1="139.51" x2="290.13" y2="141.87"/>
	</g>
	<g>
		<line class="st2" x1="295.14" y1="137.9" x2="293.55" y2="140.26"/>
	</g>
	<g>
		<line class="st2" x1="295.68" y1="138.26" x2="294.09" y2="140.62"/>
	</g>
	<g>
		<line class="st2" x1="296.21" y1="138.62" x2="294.63" y2="140.98"/>
	</g>
	<g>
		<line class="st2" x1="296.75" y1="138.99" x2="295.16" y2="141.34"/>
	</g>
	<g>
		<line class="st2" x1="297.29" y1="139.35" x2="295.7" y2="141.7"/>
	</g>
	<g>
		<line class="st2" x1="297.82" y1="139.71" x2="296.24" y2="142.07"/>
	</g>
	<g>
		<line class="st2" x1="293.33" y1="140.59" x2="291.74" y2="142.95"/>
	</g>
	<g>
		<line class="st2" x1="293.86" y1="140.96" x2="292.28" y2="143.31"/>
	</g>
	<g>
		<line class="st2" x1="294.4" y1="141.32" x2="292.81" y2="143.67"/>
	</g>
	<g>
		<line class="st2" x1="294.94" y1="141.68" x2="293.35" y2="144.04"/>
	</g>
	<g>
		<line class="st2" x1="295.47" y1="142.04" x2="293.89" y2="144.4"/>
	</g>
	<g>
		<line class="st2" x1="296.01" y1="142.4" x2="294.42" y2="144.76"/>
	</g>
	<g>
		<line class="st2" x1="299.43" y1="140.79" x2="297.85" y2="143.15"/>
	</g>
	<g>
		<line class="st2" x1="298.9" y1="140.43" x2="297.31" y2="142.79"/>
	</g>
	<g>
		<line class="st2" x1="298.36" y1="140.07" x2="296.77" y2="142.43"/>
	</g>
	<g>
		<line class="st2" x1="297.62" y1="143.49" x2="296.03" y2="145.84"/>
	</g>
	<g>
		<line class="st2" x1="297.08" y1="143.12" x2="295.5" y2="145.48"/>
	</g>
	<g>
		<line class="st2" x1="296.55" y1="142.76" x2="294.96" y2="145.12"/>
	</g>
	<g>
		<line class="st2" x1="299.97" y1="141.15" x2="298.38" y2="143.51"/>
	</g>
	<g>
		<line class="st2" x1="300.51" y1="141.52" x2="298.92" y2="143.87"/>
	</g>
	<g>
		<line class="st2" x1="301.04" y1="141.88" x2="299.46" y2="144.23"/>
	</g>
	<g>
		<line class="st2" x1="301.58" y1="142.24" x2="299.99" y2="144.6"/>
	</g>
	<g>
		<line class="st2" x1="302.12" y1="142.6" x2="300.53" y2="144.96"/>
	</g>
	<g>
		<line class="st2" x1="302.65" y1="142.96" x2="301.07" y2="145.32"/>
	</g>
	<g>
		<line class="st2" x1="298.16" y1="143.85" x2="296.57" y2="146.2"/>
	</g>
	<g>
		<line class="st2" x1="298.69" y1="144.21" x2="297.11" y2="146.57"/>
	</g>
	<g>
		<line class="st2" x1="299.23" y1="144.57" x2="297.64" y2="146.93"/>
	</g>
	<g>
		<line class="st2" x1="299.77" y1="144.93" x2="298.18" y2="147.29"/>
	</g>
	<g>
		<line class="st2" x1="300.3" y1="145.29" x2="298.72" y2="147.65"/>
	</g>
	<g>
		<line class="st2" x1="300.84" y1="145.66" x2="299.25" y2="148.01"/>
	</g>
	<g>
		<line class="st2" x1="304.27" y1="144.05" x2="302.68" y2="146.4"/>
	</g>
	<g>
		<line class="st2" x1="303.73" y1="143.69" x2="302.14" y2="146.04"/>
	</g>
	<g>
		<line class="st2" x1="303.19" y1="143.32" x2="301.61" y2="145.68"/>
	</g>
	<g>
		<line class="st2" x1="302.45" y1="146.74" x2="300.87" y2="149.1"/>
	</g>
	<g>
		<line class="st2" x1="301.92" y1="146.38" x2="300.33" y2="148.73"/>
	</g>
	<g>
		<line class="st2" x1="301.38" y1="146.02" x2="299.79" y2="148.37"/>
	</g>
	<g>
		<line class="st2" x1="304.8" y1="144.41" x2="303.22" y2="146.76"/>
	</g>
	<g>
		<line class="st2" x1="305.34" y1="144.77" x2="303.75" y2="147.13"/>
	</g>
	<g>
		<line class="st2" x1="305.88" y1="145.13" x2="304.29" y2="147.49"/>
	</g>
	<g>
		<line class="st2" x1="302.99" y1="147.1" x2="301.4" y2="149.46"/>
	</g>
	<g>
		<line class="st2" x1="303.53" y1="147.46" x2="301.94" y2="149.82"/>
	</g>
	<g>
		<line class="st2" x1="304.06" y1="147.82" x2="302.48" y2="150.18"/>
	</g>
	<g>
		<line class="st2" x1="308.38" y1="146.82" x2="306.79" y2="149.17"/>
	</g>
	<g>
		<line class="st2" x1="306.57" y1="149.51" x2="304.98" y2="151.87"/>
	</g>
</g>
<g>
	<g>
		<text transform="matrix(1 0 0 1 158.5264 127.6665)" class="st13 st8 st9">A</text>
	</g>
	<g>
		<text transform="matrix(1 0 0 1 162.3564 127.6665)" class="st13 st8 st9">t</text>
	</g>
	<g>
		<text transform="matrix(1 0 0 1 164.4619 127.6665)" class="st13 st8 st9">r</text>
	</g>
	<g>
		<text transform="matrix(1 0 0 1 166.5684 127.6665)" class="st13 st8 st9">ium</text>
	</g>
</g>
</svg>
