<?xml version="1.0" encoding="utf-8"?>
<!-- Generator: Adobe Illustrator 23.0.2, SVG Export Plug-In . SVG Version: 6.00 Build 0)  -->
<svg version="1.2" baseProfile="tiny" xmlns="http://www.w3.org/2000/svg" xmlns:xlink="http://www.w3.org/1999/xlink" x="0px"
	 y="0px" width="500px" height="310px" viewBox="0 0 500 310" xml:space="preserve">
<g id="圖層_1">
	<path fill="#9E9E9E" d="M88.95,39.17h115.42V18.73c36.5,2.27,73.01,4.54,109.51,6.82c7.43-0.21,15-0.51,22.72-0.91
		c7.41-0.38,14.68-0.84,21.81-1.36c5.99-2.07,13.16-4.06,21.36-5.45c6.66-1.13,12.78-1.65,18.18-1.82c3.59,0.04,8.3,0.43,13.63,1.82
		c5.3,1.37,9.58,3.3,12.72,5c3.26,2.43,7.25,6.07,10.45,11.36c3.65,6.05,4.91,11.99,5.45,16.36c1.59,12.77,7.33,94.54,14.09,206.76
		l11.81,31.35H106.67c0.3-36.5,0.61-73.01,0.91-109.51c-0.05-2.08-0.33-4.94-1.36-8.18c-0.92-2.89-2.14-5.17-3.18-6.82
		c-1-0.96-2.5-2.18-4.54-3.18c-2.94-1.44-5.64-1.76-7.27-1.82c-7.57-0.15-15.15-0.3-22.72-0.45V60.53l5-3.18h15L88.95,39.17z"/>
</g>
<g id="圖層_3">
	<g>
		<g>
			<polygon fill="#DFDFDF" stroke="#6B6B6B" stroke-width="1.5" stroke-miterlimit="10" points="129,94 133,95 129,115 150,119 
				154,98 158,99 160,82 132,77 			"/>
			<polygon fill="#DFDFDF" stroke="#6B6B6B" stroke-width="1.5" stroke-miterlimit="10" points="129,153 129,140 133,140 133,132 
				149,132 149,153 			"/>
			<polygon fill="#DFDFDF" stroke="#6B6B6B" stroke-width="1.5" stroke-miterlimit="10" points="130,192 150,192 149,224 133,224 
				133,219 130,219 			"/>
			<polygon fill="#DFDFDF" stroke="#6B6B6B" stroke-width="1.5" stroke-miterlimit="10" points="130,238 130,271 149,271 149,268 
				177,268 177,258 198,258 198,238 			"/>
			<polygon fill="#DFDFDF" stroke="#6B6B6B" stroke-width="1.5" stroke-miterlimit="10" points="203,238 222,238 222,271 220,271 
				220,275 205,275 205,253 203,253 			"/>
			<rect x="232" y="251" fill="#DFDFDF" stroke="#6B6B6B" stroke-width="1.5" stroke-miterlimit="10" width="20" height="25"/>
			<polygon fill="#DFDFDF" stroke="#6B6B6B" stroke-width="1.5" stroke-miterlimit="10" points="267,250 267,254 265,254 265,271 
				269,271 269,276 290,276 290,245 281,245 281,250 			"/>
			<polygon fill="#DFDFDF" stroke="#6B6B6B" stroke-width="1.5" stroke-miterlimit="10" points="307,275 307,233 348,233 348,238 
				358,238 358,260 344,260 344,266 354,266 354,275 			"/>
			<rect x="362" y="238" fill="#DFDFDF" stroke="#6B6B6B" stroke-width="1.5" stroke-miterlimit="10" width="20" height="10"/>
			<polygon fill="#DFDFDF" stroke="#6B6B6B" stroke-width="1.5" stroke-miterlimit="10" points="388,239 399,239 399,225 435,225 
				437,244 434,244 434,253 437,253 439,275 392,275 392,243 388,243 			"/>
			<polygon fill="#DFDFDF" stroke="#6B6B6B" stroke-width="1.5" stroke-miterlimit="10" points="420,205 420,211 435,211 435,198 
				424,198 424,205 			"/>
			<polygon fill="#DFDFDF" stroke="#6B6B6B" stroke-width="1.5" stroke-miterlimit="10" points="252,205 320,205 320,211 352,211 
				352,199 264,144 252,164 			"/>
			<polygon fill="#DFDFDF" stroke="#6B6B6B" stroke-width="1.5" stroke-miterlimit="10" points="192,198 199,205 247,205 247,168 
				192,168 			"/>
			<polygon fill="#DFDFDF" stroke="#6B6B6B" stroke-width="1.5" stroke-miterlimit="10" points="193,164 216,164 216,160 249,160 
				261,141 219,115 196,111 193,121 			"/>
			<polygon fill="#DFDFDF" stroke="#6B6B6B" stroke-width="1.5" stroke-miterlimit="10" points="195,91 194,99 210,101 216,89 
				206,83 201,91 			"/>
			<polygon fill="#DFDFDF" stroke="#6B6B6B" stroke-width="1.5" stroke-miterlimit="10" points="215,104 223,109 230,97 222,92 			
				"/>
			<polygon fill="#DFDFDF" stroke="#6B6B6B" stroke-width="1.5" stroke-miterlimit="10" points="358,194 348,187 355,175 365,182 
							"/>
			<polygon fill="#DFDFDF" stroke="#6B6B6B" stroke-width="1.5" stroke-miterlimit="10" points="272,140 283,147 291,135 280,128 
							"/>
			<polygon fill="#DFDFDF" stroke="#6B6B6B" stroke-width="1.5" stroke-miterlimit="10" points="216,79 216,68 235,68 235,44 
				253,44 332,94 325,108 341,119 324,148 			"/>
			<polygon fill="#DFDFDF" stroke="#6B6B6B" stroke-width="1.5" stroke-miterlimit="10" points="329,147 331,148 330,151 354,167 
				374,134 350,118 348,121 346,119 			"/>
		</g>
		<polygon fill="#DFDFDF" stroke="#6B6B6B" stroke-width="1.5" stroke-miterlimit="10" points="361,171 400,196 411,196 411,175 
			431,174 430,144 392,119 		"/>
	</g>
</g>
<g id="圖層_4">
	<g>
		<polygon fill="#676767" stroke="#333333" stroke-width="2" stroke-miterlimit="10" points="154,123 184,123 184,200 193,208 
			193,226 154,226 		"/>
		<polygon fill="#676767" stroke="#333333" stroke-width="2" stroke-miterlimit="10" points="223,109 243,122 251,111 230,97 		"/>
		<polygon fill="#676767" stroke="#333333" stroke-width="2" stroke-miterlimit="10" points="251,127 272,140 279,128 259,115 		"/>
		<polygon fill="#676767" stroke="#333333" stroke-width="2" stroke-miterlimit="10" points="283,147 300,158 308,146 291,135 		"/>
		<polygon fill="#676767" stroke="#333333" stroke-width="2" stroke-miterlimit="10" points="326,174 346,186 354,175 334,161 		"/>
		<polygon fill="#676767" stroke="#333333" stroke-width="2" stroke-miterlimit="10" points="216,224 253,225 253,251 216,251 		"/>
		<rect x="272" y="221" fill="#676767" stroke="#333333" stroke-width="2" stroke-miterlimit="10" width="35" height="24"/>
	</g>
</g>
<g id="圖層_6">
	<polygon fill="#F975A1" points="158,115 165,117 172,81 164,80 	"/>
	<polygon fill="#F975A1" points="169,116 176,118 183,82 175,81 	"/>
	<rect x="215" y="228" fill="#F975A1" width="39" height="7"/>
	<rect x="355" y="227" fill="#F975A1" width="36" height="7"/>
	<polygon fill="#F975A1" points="287,145 318,165 322,158 292,139 	"/>
</g>
</svg>
