<svg xmlns="http://www.w3.org/2000/svg" xmlns:xlink="http://www.w3.org/1999/xlink" width="900" height="720" viewBox="0 0 900 720">
  <defs>
    <style>
      .cls-1 {
        clip-path: url(#clip-Menu_9);
      }

      .cls-2 {
        fill: #ebebeb;
        font-size: 20px;
      }

      .cls-2, .cls-3 {
        font-family: Helvetica;
      }

      .cls-3 {
        fill: #fff;
        font-size: 141px;
      }

      .cls-4 {
        font-family: ChalkboardSE-Regular, Chalkboard SE;
      }

      .cls-5 {
        fill: #03caff;
      }

      .cls-6 {
        fill: #c8ff00;
      }
    </style>
    <clipPath id="clip-Menu_9">
      <rect width="900" height="720"/>
    </clipPath>
  </defs>
  <g id="Menu_9" data-name="Menu – 9" class="cls-1">
    <g id="Group_625" data-name="Group 625" transform="translate(-111 -39)">
      <text id="JUST" class="cls-2" transform="translate(85 600) rotate(-90)"><tspan x="-25" y="0">JUST</tspan></text>
      <g id="Group_622" data-name="Group 622" transform="translate(-29 -63)">
        <text id="START" class="cls-3" transform="translate(140.678 232.389)"><tspan x="0" y="0">START</tspan></text>
        <text id="YOUR_" data-name="YOUR " class="cls-3" transform="translate(140.465 408.296)"><tspan x="0" y="0">YOUR </tspan></text>
        <text id="NOW_" data-name="NOW !" class="cls-3" transform="translate(140.678 760.108)"><tspan x="0" y="0">NOW </tspan><tspan class="cls-4" y="0">!</tspan></text>
        <g id="Group_621" data-name="Group 621" transform="translate(-553 -1007.303)">
          <g id="Group_167" data-name="Group 167" transform="translate(694 1482.428)">
            <path id="Path_319" data-name="Path 319" class="cls-5" d="M233.563,985.114a23.075,23.075,0,0,0-7.238-4.872,22.482,22.482,0,0,0-8.93-1.8H183.945a15.38,15.38,0,0,1-6.171-1.239c-1.92-.835-3.624-.391-5.06-1.826a16.3,16.3,0,0,1-3.423-5.063,15.364,15.364,0,0,1-1.24-6.17V948.592a15.463,15.463,0,0,1,1.245-6.144,16.009,16.009,0,0,1,8.48-8.508,15.352,15.352,0,0,1,6.17-1.242h32.571a15.458,15.458,0,0,1,6.143,1.245,15.931,15.931,0,0,1,8.507,8.505,15.478,15.478,0,0,1,1.243,6.144v14.771h10.137V945.4a22.454,22.454,0,0,0-1.8-8.93,22.73,22.73,0,0,0-12.1-12.107,22.453,22.453,0,0,0-8.931-1.8H180.752a22.442,22.442,0,0,0-8.931,1.8,22.726,22.726,0,0,0-12.106,12.107,22.459,22.459,0,0,0-1.8,8.93v20.34a22.463,22.463,0,0,0,1.8,8.931,22.75,22.75,0,0,0,12.106,12.108,22.468,22.468,0,0,0,8.931,1.8H217.4a15.456,15.456,0,0,1,6.143,1.245,15.9,15.9,0,0,1,8.507,8.505,15.447,15.447,0,0,1,1.245,6.144v15.936a15.379,15.379,0,0,1-1.24,6.17,16.025,16.025,0,0,1-8.512,8.481,15.467,15.467,0,0,1-6.143,1.243H182.037a15.359,15.359,0,0,1-6.168-1.239,16.125,16.125,0,0,1-8.486-8.486,15.362,15.362,0,0,1-1.24-6.17v-19.682H156.008v19.682a30.9,30.9,0,0,0,1.8,10.529,22.765,22.765,0,0,0,12.108,12.106,22.494,22.494,0,0,0,8.93,1.8h41.743a22.508,22.508,0,0,0,8.931-1.8,22.753,22.753,0,0,0,12.106-12.106,30.915,30.915,0,0,0,1.8-10.529v-17.532a22.465,22.465,0,0,0-1.8-8.93C240.441,991.191,235.609,987.161,233.563,985.114Z" transform="translate(-156.008 -920.967)"/>
            <path id="Path_320" data-name="Path 320" class="cls-5" d="M306.707,923H219.439v10.473h38.456v108.045h10.136V933.473h38.676Z" transform="translate(-118.184 -920.706)"/>
            <path id="Path_321" data-name="Path 321" class="cls-5" d="M267.828,1040.816h14.414l96.278-103.7v104.017h11.265V923H376.032Z" transform="translate(-89.329 -920.706)"/>
            <path id="Path_322" data-name="Path 322" class="cls-5" d="M443.62,929.323a21.979,21.979,0,0,0-6.826-4.613,20.994,20.994,0,0,0-8.4-1.71H366.574v118.519h10.473V994.052h48.046a13.949,13.949,0,0,1,5.707,1.156,15.015,15.015,0,0,1,4.594,3.151,14.275,14.275,0,0,1,4.077,10.069v33.091h10.473v-34.74a21.437,21.437,0,0,0-4.328-13c-1.357-1.788-4.642-3.367-6.515-4.693-.12-.084,1.41-.169,1.288-.249.113-.077-1.424-.153-1.312-.23,1.884-1.3,5.178-2.878,6.539-4.674a21.279,21.279,0,0,0,3.194-6.072,21.871,21.871,0,0,0,1.133-7.006v-26.3a21,21,0,0,0-1.711-8.4A21.922,21.922,0,0,0,443.62,929.323Zm-12.818,53.1a13.913,13.913,0,0,1-5.708,1.157H377.047v-50.1h48.046a13.962,13.962,0,0,1,5.582,1.129,14.381,14.381,0,0,1,7.664,7.666,13.919,13.919,0,0,1,1.132,5.582V969.2a14.267,14.267,0,0,1-4.075,10.066A14.905,14.905,0,0,1,430.8,982.421Z" transform="translate(-30.446 -920.706)"/>
            <path id="Path_323" data-name="Path 323" class="cls-6" d="M448.37,923H437.9v118.519h76.174v-10.467H448.37Z" transform="translate(12.088 -920.706)"/>
            <rect id="Rectangle_231" data-name="Rectangle 231" class="cls-6" width="10.136" height="120.115" transform="translate(546.869 0.698)"/>
            <path id="Path_324" data-name="Path 324" class="cls-6" d="M605.474,930.545a30.989,30.989,0,0,0-9.769-6.561,30.484,30.484,0,0,0-12.081-2.422H555.05a30.5,30.5,0,0,0-12.084,2.422,30.519,30.519,0,0,0-16.33,16.33,30.518,30.518,0,0,0-2.422,12.083v58.869a30.483,30.483,0,0,0,2.423,12.084,30.515,30.515,0,0,0,16.329,16.329,30.5,30.5,0,0,0,12.084,2.423H582.6a30.471,30.471,0,0,0,12.081-2.423,30.51,30.51,0,0,0,16.33-16.329,30.465,30.465,0,0,0,2.423-12.084V982.3H569.97v8.539H604.89v18.828a23.46,23.46,0,0,1-1.869,9.3,23.67,23.67,0,0,1-12.718,12.719,23.464,23.464,0,0,1-9.3,1.869H556.646a23.46,23.46,0,0,1-9.3-1.868,23.7,23.7,0,0,1-12.721-12.721,23.46,23.46,0,0,1-1.868-9.3V953.994a23.445,23.445,0,0,1,1.869-9.3,23.671,23.671,0,0,1,12.719-12.718,23.452,23.452,0,0,1,9.3-1.871h25.381a23.435,23.435,0,0,1,9.3,1.871,23.666,23.666,0,0,1,12.721,12.718,23.451,23.451,0,0,1,1.869,9.3V961.5l8.54-1.6V952.4a30.471,30.471,0,0,0-2.423-12.083A30.935,30.935,0,0,0,605.474,930.545Z" transform="translate(63.555 -921.563)"/>
            <path id="Path_325" data-name="Path 325" class="cls-6" d="M675.453,975.022H607.559V922H596.944v120.115h10.615V985.636h67.894v56.479h10.615V922H675.453Z" transform="translate(106.925 -921.302)"/>
            <path id="Path_326" data-name="Path 326" class="cls-6" d="M751.707,923H664.439v10.473h38.456v108.045h10.136V933.473h38.676Z" transform="translate(147.172 -920.706)"/>
          </g>
        </g>
      </g>
    </g>
  </g>
</svg>
